%TF.GenerationSoftware,KiCad,Pcbnew,9.0.7-9.0.7~ubuntu24.04.1*%
%TF.CreationDate,2026-02-04T00:02:02-05:00*%
%TF.ProjectId,videoOSD,76696465-6f4f-4534-942e-6b696361645f,rev?*%
%TF.SameCoordinates,Original*%
%TF.FileFunction,Legend,Bot*%
%TF.FilePolarity,Positive*%
%FSLAX46Y46*%
G04 Gerber Fmt 4.6, Leading zero omitted, Abs format (unit mm)*
G04 Created by KiCad (PCBNEW 9.0.7-9.0.7~ubuntu24.04.1) date 2026-02-04 00:02:02*
%MOMM*%
%LPD*%
G01*
G04 APERTURE LIST*
%ADD10C,0.100000*%
%ADD11C,0.150000*%
G04 APERTURE END LIST*
D10*
X133377580Y-102469925D02*
X133377580Y-102946115D01*
X133377580Y-102946115D02*
X134377580Y-102946115D01*
X133425200Y-101755639D02*
X133377580Y-101850877D01*
X133377580Y-101850877D02*
X133377580Y-102041353D01*
X133377580Y-102041353D02*
X133425200Y-102136591D01*
X133425200Y-102136591D02*
X133520438Y-102184210D01*
X133520438Y-102184210D02*
X133901390Y-102184210D01*
X133901390Y-102184210D02*
X133996628Y-102136591D01*
X133996628Y-102136591D02*
X134044247Y-102041353D01*
X134044247Y-102041353D02*
X134044247Y-101850877D01*
X134044247Y-101850877D02*
X133996628Y-101755639D01*
X133996628Y-101755639D02*
X133901390Y-101708020D01*
X133901390Y-101708020D02*
X133806152Y-101708020D01*
X133806152Y-101708020D02*
X133710914Y-102184210D01*
X134044247Y-101422305D02*
X134044247Y-101041353D01*
X134377580Y-101279448D02*
X133520438Y-101279448D01*
X133520438Y-101279448D02*
X133425200Y-101231829D01*
X133425200Y-101231829D02*
X133377580Y-101136591D01*
X133377580Y-101136591D02*
X133377580Y-101041353D01*
X134377580Y-100660400D02*
X134187104Y-100755638D01*
X133425200Y-100279448D02*
X133377580Y-100184210D01*
X133377580Y-100184210D02*
X133377580Y-99993734D01*
X133377580Y-99993734D02*
X133425200Y-99898496D01*
X133425200Y-99898496D02*
X133520438Y-99850877D01*
X133520438Y-99850877D02*
X133568057Y-99850877D01*
X133568057Y-99850877D02*
X133663295Y-99898496D01*
X133663295Y-99898496D02*
X133710914Y-99993734D01*
X133710914Y-99993734D02*
X133710914Y-100136591D01*
X133710914Y-100136591D02*
X133758533Y-100231829D01*
X133758533Y-100231829D02*
X133853771Y-100279448D01*
X133853771Y-100279448D02*
X133901390Y-100279448D01*
X133901390Y-100279448D02*
X133996628Y-100231829D01*
X133996628Y-100231829D02*
X134044247Y-100136591D01*
X134044247Y-100136591D02*
X134044247Y-99993734D01*
X134044247Y-99993734D02*
X133996628Y-99898496D01*
X133901390Y-98327067D02*
X133853771Y-98184210D01*
X133853771Y-98184210D02*
X133806152Y-98136591D01*
X133806152Y-98136591D02*
X133710914Y-98088972D01*
X133710914Y-98088972D02*
X133568057Y-98088972D01*
X133568057Y-98088972D02*
X133472819Y-98136591D01*
X133472819Y-98136591D02*
X133425200Y-98184210D01*
X133425200Y-98184210D02*
X133377580Y-98279448D01*
X133377580Y-98279448D02*
X133377580Y-98660400D01*
X133377580Y-98660400D02*
X134377580Y-98660400D01*
X134377580Y-98660400D02*
X134377580Y-98327067D01*
X134377580Y-98327067D02*
X134329961Y-98231829D01*
X134329961Y-98231829D02*
X134282342Y-98184210D01*
X134282342Y-98184210D02*
X134187104Y-98136591D01*
X134187104Y-98136591D02*
X134091866Y-98136591D01*
X134091866Y-98136591D02*
X133996628Y-98184210D01*
X133996628Y-98184210D02*
X133949009Y-98231829D01*
X133949009Y-98231829D02*
X133901390Y-98327067D01*
X133901390Y-98327067D02*
X133901390Y-98660400D01*
X134044247Y-97231829D02*
X133377580Y-97231829D01*
X134044247Y-97660400D02*
X133520438Y-97660400D01*
X133520438Y-97660400D02*
X133425200Y-97612781D01*
X133425200Y-97612781D02*
X133377580Y-97517543D01*
X133377580Y-97517543D02*
X133377580Y-97374686D01*
X133377580Y-97374686D02*
X133425200Y-97279448D01*
X133425200Y-97279448D02*
X133472819Y-97231829D01*
X133377580Y-96755638D02*
X134044247Y-96755638D01*
X134377580Y-96755638D02*
X134329961Y-96803257D01*
X134329961Y-96803257D02*
X134282342Y-96755638D01*
X134282342Y-96755638D02*
X134329961Y-96708019D01*
X134329961Y-96708019D02*
X134377580Y-96755638D01*
X134377580Y-96755638D02*
X134282342Y-96755638D01*
X133377580Y-96136591D02*
X133425200Y-96231829D01*
X133425200Y-96231829D02*
X133520438Y-96279448D01*
X133520438Y-96279448D02*
X134377580Y-96279448D01*
X133377580Y-95327067D02*
X134377580Y-95327067D01*
X133425200Y-95327067D02*
X133377580Y-95422305D01*
X133377580Y-95422305D02*
X133377580Y-95612781D01*
X133377580Y-95612781D02*
X133425200Y-95708019D01*
X133425200Y-95708019D02*
X133472819Y-95755638D01*
X133472819Y-95755638D02*
X133568057Y-95803257D01*
X133568057Y-95803257D02*
X133853771Y-95803257D01*
X133853771Y-95803257D02*
X133949009Y-95755638D01*
X133949009Y-95755638D02*
X133996628Y-95708019D01*
X133996628Y-95708019D02*
X134044247Y-95612781D01*
X134044247Y-95612781D02*
X134044247Y-95422305D01*
X134044247Y-95422305D02*
X133996628Y-95327067D01*
X133663295Y-94136590D02*
X133663295Y-93660400D01*
X133377580Y-94231828D02*
X134377580Y-93898495D01*
X134377580Y-93898495D02*
X133377580Y-93565162D01*
X133377580Y-91898495D02*
X133853771Y-92231828D01*
X133377580Y-92469923D02*
X134377580Y-92469923D01*
X134377580Y-92469923D02*
X134377580Y-92088971D01*
X134377580Y-92088971D02*
X134329961Y-91993733D01*
X134329961Y-91993733D02*
X134282342Y-91946114D01*
X134282342Y-91946114D02*
X134187104Y-91898495D01*
X134187104Y-91898495D02*
X134044247Y-91898495D01*
X134044247Y-91898495D02*
X133949009Y-91946114D01*
X133949009Y-91946114D02*
X133901390Y-91993733D01*
X133901390Y-91993733D02*
X133853771Y-92088971D01*
X133853771Y-92088971D02*
X133853771Y-92469923D01*
X133377580Y-91041352D02*
X133901390Y-91041352D01*
X133901390Y-91041352D02*
X133996628Y-91088971D01*
X133996628Y-91088971D02*
X134044247Y-91184209D01*
X134044247Y-91184209D02*
X134044247Y-91374685D01*
X134044247Y-91374685D02*
X133996628Y-91469923D01*
X133425200Y-91041352D02*
X133377580Y-91136590D01*
X133377580Y-91136590D02*
X133377580Y-91374685D01*
X133377580Y-91374685D02*
X133425200Y-91469923D01*
X133425200Y-91469923D02*
X133520438Y-91517542D01*
X133520438Y-91517542D02*
X133615676Y-91517542D01*
X133615676Y-91517542D02*
X133710914Y-91469923D01*
X133710914Y-91469923D02*
X133758533Y-91374685D01*
X133758533Y-91374685D02*
X133758533Y-91136590D01*
X133758533Y-91136590D02*
X133806152Y-91041352D01*
X133377580Y-90136590D02*
X134377580Y-90136590D01*
X133425200Y-90136590D02*
X133377580Y-90231828D01*
X133377580Y-90231828D02*
X133377580Y-90422304D01*
X133377580Y-90422304D02*
X133425200Y-90517542D01*
X133425200Y-90517542D02*
X133472819Y-90565161D01*
X133472819Y-90565161D02*
X133568057Y-90612780D01*
X133568057Y-90612780D02*
X133853771Y-90612780D01*
X133853771Y-90612780D02*
X133949009Y-90565161D01*
X133949009Y-90565161D02*
X133996628Y-90517542D01*
X133996628Y-90517542D02*
X134044247Y-90422304D01*
X134044247Y-90422304D02*
X134044247Y-90231828D01*
X134044247Y-90231828D02*
X133996628Y-90136590D01*
X133377580Y-89660399D02*
X134044247Y-89660399D01*
X134377580Y-89660399D02*
X134329961Y-89708018D01*
X134329961Y-89708018D02*
X134282342Y-89660399D01*
X134282342Y-89660399D02*
X134329961Y-89612780D01*
X134329961Y-89612780D02*
X134377580Y-89660399D01*
X134377580Y-89660399D02*
X134282342Y-89660399D01*
X133377580Y-89041352D02*
X133425200Y-89136590D01*
X133425200Y-89136590D02*
X133472819Y-89184209D01*
X133472819Y-89184209D02*
X133568057Y-89231828D01*
X133568057Y-89231828D02*
X133853771Y-89231828D01*
X133853771Y-89231828D02*
X133949009Y-89184209D01*
X133949009Y-89184209D02*
X133996628Y-89136590D01*
X133996628Y-89136590D02*
X134044247Y-89041352D01*
X134044247Y-89041352D02*
X134044247Y-88898495D01*
X134044247Y-88898495D02*
X133996628Y-88803257D01*
X133996628Y-88803257D02*
X133949009Y-88755638D01*
X133949009Y-88755638D02*
X133853771Y-88708019D01*
X133853771Y-88708019D02*
X133568057Y-88708019D01*
X133568057Y-88708019D02*
X133472819Y-88755638D01*
X133472819Y-88755638D02*
X133425200Y-88803257D01*
X133425200Y-88803257D02*
X133377580Y-88898495D01*
X133377580Y-88898495D02*
X133377580Y-89041352D01*
X133472819Y-88279447D02*
X133425200Y-88231828D01*
X133425200Y-88231828D02*
X133377580Y-88279447D01*
X133377580Y-88279447D02*
X133425200Y-88327066D01*
X133425200Y-88327066D02*
X133472819Y-88279447D01*
X133472819Y-88279447D02*
X133377580Y-88279447D01*
X133758533Y-88279447D02*
X134329961Y-88327066D01*
X134329961Y-88327066D02*
X134377580Y-88279447D01*
X134377580Y-88279447D02*
X134329961Y-88231828D01*
X134329961Y-88231828D02*
X133758533Y-88279447D01*
X133758533Y-88279447D02*
X134377580Y-88279447D01*
D11*
X125443922Y-99630180D02*
X125777255Y-98630180D01*
X125777255Y-98630180D02*
X126110588Y-99630180D01*
X126443922Y-98630180D02*
X126443922Y-99630180D01*
X126920112Y-98630180D02*
X126920112Y-99630180D01*
X126920112Y-99630180D02*
X127158207Y-99630180D01*
X127158207Y-99630180D02*
X127301064Y-99582561D01*
X127301064Y-99582561D02*
X127396302Y-99487323D01*
X127396302Y-99487323D02*
X127443921Y-99392085D01*
X127443921Y-99392085D02*
X127491540Y-99201609D01*
X127491540Y-99201609D02*
X127491540Y-99058752D01*
X127491540Y-99058752D02*
X127443921Y-98868276D01*
X127443921Y-98868276D02*
X127396302Y-98773038D01*
X127396302Y-98773038D02*
X127301064Y-98677800D01*
X127301064Y-98677800D02*
X127158207Y-98630180D01*
X127158207Y-98630180D02*
X126920112Y-98630180D01*
X128872493Y-99630180D02*
X129062969Y-99630180D01*
X129062969Y-99630180D02*
X129158207Y-99582561D01*
X129158207Y-99582561D02*
X129253445Y-99487323D01*
X129253445Y-99487323D02*
X129301064Y-99296847D01*
X129301064Y-99296847D02*
X129301064Y-98963514D01*
X129301064Y-98963514D02*
X129253445Y-98773038D01*
X129253445Y-98773038D02*
X129158207Y-98677800D01*
X129158207Y-98677800D02*
X129062969Y-98630180D01*
X129062969Y-98630180D02*
X128872493Y-98630180D01*
X128872493Y-98630180D02*
X128777255Y-98677800D01*
X128777255Y-98677800D02*
X128682017Y-98773038D01*
X128682017Y-98773038D02*
X128634398Y-98963514D01*
X128634398Y-98963514D02*
X128634398Y-99296847D01*
X128634398Y-99296847D02*
X128682017Y-99487323D01*
X128682017Y-99487323D02*
X128777255Y-99582561D01*
X128777255Y-99582561D02*
X128872493Y-99630180D01*
X129729636Y-99630180D02*
X129729636Y-98820657D01*
X129729636Y-98820657D02*
X129777255Y-98725419D01*
X129777255Y-98725419D02*
X129824874Y-98677800D01*
X129824874Y-98677800D02*
X129920112Y-98630180D01*
X129920112Y-98630180D02*
X130110588Y-98630180D01*
X130110588Y-98630180D02*
X130205826Y-98677800D01*
X130205826Y-98677800D02*
X130253445Y-98725419D01*
X130253445Y-98725419D02*
X130301064Y-98820657D01*
X130301064Y-98820657D02*
X130301064Y-99630180D01*
X130634398Y-99630180D02*
X131205826Y-99630180D01*
X130920112Y-98630180D02*
X130920112Y-99630180D01*
X131110588Y-76332561D02*
X131015350Y-76380180D01*
X131015350Y-76380180D02*
X130872493Y-76380180D01*
X130872493Y-76380180D02*
X130729636Y-76332561D01*
X130729636Y-76332561D02*
X130634398Y-76237323D01*
X130634398Y-76237323D02*
X130586779Y-76142085D01*
X130586779Y-76142085D02*
X130539160Y-75951609D01*
X130539160Y-75951609D02*
X130539160Y-75808752D01*
X130539160Y-75808752D02*
X130586779Y-75618276D01*
X130586779Y-75618276D02*
X130634398Y-75523038D01*
X130634398Y-75523038D02*
X130729636Y-75427800D01*
X130729636Y-75427800D02*
X130872493Y-75380180D01*
X130872493Y-75380180D02*
X130967731Y-75380180D01*
X130967731Y-75380180D02*
X131110588Y-75427800D01*
X131110588Y-75427800D02*
X131158207Y-75475419D01*
X131158207Y-75475419D02*
X131158207Y-75808752D01*
X131158207Y-75808752D02*
X130967731Y-75808752D01*
X131586779Y-75380180D02*
X131586779Y-76380180D01*
X131586779Y-76380180D02*
X132158207Y-75380180D01*
X132158207Y-75380180D02*
X132158207Y-76380180D01*
X132634398Y-75380180D02*
X132634398Y-76380180D01*
X132634398Y-76380180D02*
X132872493Y-76380180D01*
X132872493Y-76380180D02*
X133015350Y-76332561D01*
X133015350Y-76332561D02*
X133110588Y-76237323D01*
X133110588Y-76237323D02*
X133158207Y-76142085D01*
X133158207Y-76142085D02*
X133205826Y-75951609D01*
X133205826Y-75951609D02*
X133205826Y-75808752D01*
X133205826Y-75808752D02*
X133158207Y-75618276D01*
X133158207Y-75618276D02*
X133110588Y-75523038D01*
X133110588Y-75523038D02*
X133015350Y-75427800D01*
X133015350Y-75427800D02*
X132872493Y-75380180D01*
X132872493Y-75380180D02*
X132634398Y-75380180D01*
X125860588Y-97082561D02*
X125765350Y-97130180D01*
X125765350Y-97130180D02*
X125622493Y-97130180D01*
X125622493Y-97130180D02*
X125479636Y-97082561D01*
X125479636Y-97082561D02*
X125384398Y-96987323D01*
X125384398Y-96987323D02*
X125336779Y-96892085D01*
X125336779Y-96892085D02*
X125289160Y-96701609D01*
X125289160Y-96701609D02*
X125289160Y-96558752D01*
X125289160Y-96558752D02*
X125336779Y-96368276D01*
X125336779Y-96368276D02*
X125384398Y-96273038D01*
X125384398Y-96273038D02*
X125479636Y-96177800D01*
X125479636Y-96177800D02*
X125622493Y-96130180D01*
X125622493Y-96130180D02*
X125717731Y-96130180D01*
X125717731Y-96130180D02*
X125860588Y-96177800D01*
X125860588Y-96177800D02*
X125908207Y-96225419D01*
X125908207Y-96225419D02*
X125908207Y-96558752D01*
X125908207Y-96558752D02*
X125717731Y-96558752D01*
X126336779Y-96130180D02*
X126336779Y-97130180D01*
X126336779Y-97130180D02*
X126908207Y-96130180D01*
X126908207Y-96130180D02*
X126908207Y-97130180D01*
X127384398Y-96130180D02*
X127384398Y-97130180D01*
X127384398Y-97130180D02*
X127622493Y-97130180D01*
X127622493Y-97130180D02*
X127765350Y-97082561D01*
X127765350Y-97082561D02*
X127860588Y-96987323D01*
X127860588Y-96987323D02*
X127908207Y-96892085D01*
X127908207Y-96892085D02*
X127955826Y-96701609D01*
X127955826Y-96701609D02*
X127955826Y-96558752D01*
X127955826Y-96558752D02*
X127908207Y-96368276D01*
X127908207Y-96368276D02*
X127860588Y-96273038D01*
X127860588Y-96273038D02*
X127765350Y-96177800D01*
X127765350Y-96177800D02*
X127622493Y-96130180D01*
X127622493Y-96130180D02*
X127384398Y-96130180D01*
X125336779Y-94011133D02*
X126098684Y-94011133D01*
X125717731Y-93630180D02*
X125717731Y-94392085D01*
X127051064Y-94630180D02*
X126574874Y-94630180D01*
X126574874Y-94630180D02*
X126527255Y-94153990D01*
X126527255Y-94153990D02*
X126574874Y-94201609D01*
X126574874Y-94201609D02*
X126670112Y-94249228D01*
X126670112Y-94249228D02*
X126908207Y-94249228D01*
X126908207Y-94249228D02*
X127003445Y-94201609D01*
X127003445Y-94201609D02*
X127051064Y-94153990D01*
X127051064Y-94153990D02*
X127098683Y-94058752D01*
X127098683Y-94058752D02*
X127098683Y-93820657D01*
X127098683Y-93820657D02*
X127051064Y-93725419D01*
X127051064Y-93725419D02*
X127003445Y-93677800D01*
X127003445Y-93677800D02*
X126908207Y-93630180D01*
X126908207Y-93630180D02*
X126670112Y-93630180D01*
X126670112Y-93630180D02*
X126574874Y-93677800D01*
X126574874Y-93677800D02*
X126527255Y-93725419D01*
X127384398Y-94630180D02*
X127717731Y-93630180D01*
X127717731Y-93630180D02*
X128051064Y-94630180D01*
X128836779Y-81011133D02*
X129598684Y-81011133D01*
X129217731Y-80630180D02*
X129217731Y-81392085D01*
X129979636Y-81630180D02*
X130598683Y-81630180D01*
X130598683Y-81630180D02*
X130265350Y-81249228D01*
X130265350Y-81249228D02*
X130408207Y-81249228D01*
X130408207Y-81249228D02*
X130503445Y-81201609D01*
X130503445Y-81201609D02*
X130551064Y-81153990D01*
X130551064Y-81153990D02*
X130598683Y-81058752D01*
X130598683Y-81058752D02*
X130598683Y-80820657D01*
X130598683Y-80820657D02*
X130551064Y-80725419D01*
X130551064Y-80725419D02*
X130503445Y-80677800D01*
X130503445Y-80677800D02*
X130408207Y-80630180D01*
X130408207Y-80630180D02*
X130122493Y-80630180D01*
X130122493Y-80630180D02*
X130027255Y-80677800D01*
X130027255Y-80677800D02*
X129979636Y-80725419D01*
X131027255Y-80725419D02*
X131074874Y-80677800D01*
X131074874Y-80677800D02*
X131027255Y-80630180D01*
X131027255Y-80630180D02*
X130979636Y-80677800D01*
X130979636Y-80677800D02*
X131027255Y-80725419D01*
X131027255Y-80725419D02*
X131027255Y-80630180D01*
X131408207Y-81630180D02*
X132027254Y-81630180D01*
X132027254Y-81630180D02*
X131693921Y-81249228D01*
X131693921Y-81249228D02*
X131836778Y-81249228D01*
X131836778Y-81249228D02*
X131932016Y-81201609D01*
X131932016Y-81201609D02*
X131979635Y-81153990D01*
X131979635Y-81153990D02*
X132027254Y-81058752D01*
X132027254Y-81058752D02*
X132027254Y-80820657D01*
X132027254Y-80820657D02*
X131979635Y-80725419D01*
X131979635Y-80725419D02*
X131932016Y-80677800D01*
X131932016Y-80677800D02*
X131836778Y-80630180D01*
X131836778Y-80630180D02*
X131551064Y-80630180D01*
X131551064Y-80630180D02*
X131455826Y-80677800D01*
X131455826Y-80677800D02*
X131408207Y-80725419D01*
X132312969Y-81630180D02*
X132646302Y-80630180D01*
X132646302Y-80630180D02*
X132979635Y-81630180D01*
X125086779Y-88761133D02*
X125848684Y-88761133D01*
X125467731Y-88380180D02*
X125467731Y-89142085D01*
X126801064Y-89380180D02*
X126324874Y-89380180D01*
X126324874Y-89380180D02*
X126277255Y-88903990D01*
X126277255Y-88903990D02*
X126324874Y-88951609D01*
X126324874Y-88951609D02*
X126420112Y-88999228D01*
X126420112Y-88999228D02*
X126658207Y-88999228D01*
X126658207Y-88999228D02*
X126753445Y-88951609D01*
X126753445Y-88951609D02*
X126801064Y-88903990D01*
X126801064Y-88903990D02*
X126848683Y-88808752D01*
X126848683Y-88808752D02*
X126848683Y-88570657D01*
X126848683Y-88570657D02*
X126801064Y-88475419D01*
X126801064Y-88475419D02*
X126753445Y-88427800D01*
X126753445Y-88427800D02*
X126658207Y-88380180D01*
X126658207Y-88380180D02*
X126420112Y-88380180D01*
X126420112Y-88380180D02*
X126324874Y-88427800D01*
X126324874Y-88427800D02*
X126277255Y-88475419D01*
X127134398Y-89380180D02*
X127467731Y-88380180D01*
X127467731Y-88380180D02*
X127801064Y-89380180D01*
X125193922Y-84130180D02*
X125527255Y-83130180D01*
X125527255Y-83130180D02*
X125860588Y-84130180D01*
X126193922Y-83130180D02*
X126193922Y-84130180D01*
X126670112Y-83130180D02*
X126670112Y-84130180D01*
X126670112Y-84130180D02*
X126908207Y-84130180D01*
X126908207Y-84130180D02*
X127051064Y-84082561D01*
X127051064Y-84082561D02*
X127146302Y-83987323D01*
X127146302Y-83987323D02*
X127193921Y-83892085D01*
X127193921Y-83892085D02*
X127241540Y-83701609D01*
X127241540Y-83701609D02*
X127241540Y-83558752D01*
X127241540Y-83558752D02*
X127193921Y-83368276D01*
X127193921Y-83368276D02*
X127146302Y-83273038D01*
X127146302Y-83273038D02*
X127051064Y-83177800D01*
X127051064Y-83177800D02*
X126908207Y-83130180D01*
X126908207Y-83130180D02*
X126670112Y-83130180D01*
X128432017Y-83130180D02*
X128432017Y-84130180D01*
X128908207Y-83130180D02*
X128908207Y-84130180D01*
X128908207Y-84130180D02*
X129479635Y-83130180D01*
X129479635Y-83130180D02*
X129479635Y-84130180D01*
X130039160Y-77927800D02*
X130182017Y-77880180D01*
X130182017Y-77880180D02*
X130420112Y-77880180D01*
X130420112Y-77880180D02*
X130515350Y-77927800D01*
X130515350Y-77927800D02*
X130562969Y-77975419D01*
X130562969Y-77975419D02*
X130610588Y-78070657D01*
X130610588Y-78070657D02*
X130610588Y-78165895D01*
X130610588Y-78165895D02*
X130562969Y-78261133D01*
X130562969Y-78261133D02*
X130515350Y-78308752D01*
X130515350Y-78308752D02*
X130420112Y-78356371D01*
X130420112Y-78356371D02*
X130229636Y-78403990D01*
X130229636Y-78403990D02*
X130134398Y-78451609D01*
X130134398Y-78451609D02*
X130086779Y-78499228D01*
X130086779Y-78499228D02*
X130039160Y-78594466D01*
X130039160Y-78594466D02*
X130039160Y-78689704D01*
X130039160Y-78689704D02*
X130086779Y-78784942D01*
X130086779Y-78784942D02*
X130134398Y-78832561D01*
X130134398Y-78832561D02*
X130229636Y-78880180D01*
X130229636Y-78880180D02*
X130467731Y-78880180D01*
X130467731Y-78880180D02*
X130610588Y-78832561D01*
X131039160Y-77880180D02*
X131039160Y-78880180D01*
X132039159Y-78832561D02*
X131943921Y-78880180D01*
X131943921Y-78880180D02*
X131801064Y-78880180D01*
X131801064Y-78880180D02*
X131658207Y-78832561D01*
X131658207Y-78832561D02*
X131562969Y-78737323D01*
X131562969Y-78737323D02*
X131515350Y-78642085D01*
X131515350Y-78642085D02*
X131467731Y-78451609D01*
X131467731Y-78451609D02*
X131467731Y-78308752D01*
X131467731Y-78308752D02*
X131515350Y-78118276D01*
X131515350Y-78118276D02*
X131562969Y-78023038D01*
X131562969Y-78023038D02*
X131658207Y-77927800D01*
X131658207Y-77927800D02*
X131801064Y-77880180D01*
X131801064Y-77880180D02*
X131896302Y-77880180D01*
X131896302Y-77880180D02*
X132039159Y-77927800D01*
X132039159Y-77927800D02*
X132086778Y-77975419D01*
X132086778Y-77975419D02*
X132086778Y-78308752D01*
X132086778Y-78308752D02*
X131896302Y-78308752D01*
X132658207Y-77975419D02*
X132705826Y-77927800D01*
X132705826Y-77927800D02*
X132658207Y-77880180D01*
X132658207Y-77880180D02*
X132610588Y-77927800D01*
X132610588Y-77927800D02*
X132658207Y-77975419D01*
X132658207Y-77975419D02*
X132658207Y-77880180D01*
X132467731Y-78832561D02*
X132562969Y-78880180D01*
X132562969Y-78880180D02*
X132801064Y-78880180D01*
X132801064Y-78880180D02*
X132896302Y-78832561D01*
X132896302Y-78832561D02*
X132943921Y-78737323D01*
X132943921Y-78737323D02*
X132943921Y-78642085D01*
X132943921Y-78642085D02*
X132896302Y-78546847D01*
X132896302Y-78546847D02*
X132848683Y-78499228D01*
X132848683Y-78499228D02*
X132753445Y-78451609D01*
X132753445Y-78451609D02*
X132705826Y-78403990D01*
X132705826Y-78403990D02*
X132658207Y-78308752D01*
X132658207Y-78308752D02*
X132658207Y-78261133D01*
X125860588Y-86582561D02*
X125765350Y-86630180D01*
X125765350Y-86630180D02*
X125622493Y-86630180D01*
X125622493Y-86630180D02*
X125479636Y-86582561D01*
X125479636Y-86582561D02*
X125384398Y-86487323D01*
X125384398Y-86487323D02*
X125336779Y-86392085D01*
X125336779Y-86392085D02*
X125289160Y-86201609D01*
X125289160Y-86201609D02*
X125289160Y-86058752D01*
X125289160Y-86058752D02*
X125336779Y-85868276D01*
X125336779Y-85868276D02*
X125384398Y-85773038D01*
X125384398Y-85773038D02*
X125479636Y-85677800D01*
X125479636Y-85677800D02*
X125622493Y-85630180D01*
X125622493Y-85630180D02*
X125717731Y-85630180D01*
X125717731Y-85630180D02*
X125860588Y-85677800D01*
X125860588Y-85677800D02*
X125908207Y-85725419D01*
X125908207Y-85725419D02*
X125908207Y-86058752D01*
X125908207Y-86058752D02*
X125717731Y-86058752D01*
X126336779Y-85630180D02*
X126336779Y-86630180D01*
X126336779Y-86630180D02*
X126908207Y-85630180D01*
X126908207Y-85630180D02*
X126908207Y-86630180D01*
X127384398Y-85630180D02*
X127384398Y-86630180D01*
X127384398Y-86630180D02*
X127622493Y-86630180D01*
X127622493Y-86630180D02*
X127765350Y-86582561D01*
X127765350Y-86582561D02*
X127860588Y-86487323D01*
X127860588Y-86487323D02*
X127908207Y-86392085D01*
X127908207Y-86392085D02*
X127955826Y-86201609D01*
X127955826Y-86201609D02*
X127955826Y-86058752D01*
X127955826Y-86058752D02*
X127908207Y-85868276D01*
X127908207Y-85868276D02*
X127860588Y-85773038D01*
X127860588Y-85773038D02*
X127765350Y-85677800D01*
X127765350Y-85677800D02*
X127622493Y-85630180D01*
X127622493Y-85630180D02*
X127384398Y-85630180D01*
M02*
