%TF.GenerationSoftware,KiCad,Pcbnew,9.0.7-9.0.7~ubuntu24.04.1*%
%TF.CreationDate,2026-02-04T00:02:02-05:00*%
%TF.ProjectId,videoOSD,76696465-6f4f-4534-942e-6b696361645f,rev?*%
%TF.SameCoordinates,Original*%
%TF.FileFunction,Copper,L1,Top*%
%TF.FilePolarity,Positive*%
%FSLAX46Y46*%
G04 Gerber Fmt 4.6, Leading zero omitted, Abs format (unit mm)*
G04 Created by KiCad (PCBNEW 9.0.7-9.0.7~ubuntu24.04.1) date 2026-02-04 00:02:02*
%MOMM*%
%LPD*%
G01*
G04 APERTURE LIST*
G04 Aperture macros list*
%AMRoundRect*
0 Rectangle with rounded corners*
0 $1 Rounding radius*
0 $2 $3 $4 $5 $6 $7 $8 $9 X,Y pos of 4 corners*
0 Add a 4 corners polygon primitive as box body*
4,1,4,$2,$3,$4,$5,$6,$7,$8,$9,$2,$3,0*
0 Add four circle primitives for the rounded corners*
1,1,$1+$1,$2,$3*
1,1,$1+$1,$4,$5*
1,1,$1+$1,$6,$7*
1,1,$1+$1,$8,$9*
0 Add four rect primitives between the rounded corners*
20,1,$1+$1,$2,$3,$4,$5,0*
20,1,$1+$1,$4,$5,$6,$7,0*
20,1,$1+$1,$6,$7,$8,$9,0*
20,1,$1+$1,$8,$9,$2,$3,0*%
G04 Aperture macros list end*
%ADD10C,0.100000*%
%TA.AperFunction,NonConductor*%
%ADD11C,0.100000*%
%TD*%
%TA.AperFunction,ComponentPad*%
%ADD12R,1.000000X1.000000*%
%TD*%
%TA.AperFunction,SMDPad,CuDef*%
%ADD13RoundRect,0.135000X0.135000X0.185000X-0.135000X0.185000X-0.135000X-0.185000X0.135000X-0.185000X0*%
%TD*%
%TA.AperFunction,SMDPad,CuDef*%
%ADD14RoundRect,0.225000X-0.250000X0.225000X-0.250000X-0.225000X0.250000X-0.225000X0.250000X0.225000X0*%
%TD*%
%TA.AperFunction,SMDPad,CuDef*%
%ADD15R,1.000000X1.000000*%
%TD*%
%TA.AperFunction,SMDPad,CuDef*%
%ADD16RoundRect,0.135000X0.185000X-0.135000X0.185000X0.135000X-0.185000X0.135000X-0.185000X-0.135000X0*%
%TD*%
%TA.AperFunction,SMDPad,CuDef*%
%ADD17RoundRect,0.140000X0.140000X0.170000X-0.140000X0.170000X-0.140000X-0.170000X0.140000X-0.170000X0*%
%TD*%
%TA.AperFunction,SMDPad,CuDef*%
%ADD18RoundRect,0.140000X-0.170000X0.140000X-0.170000X-0.140000X0.170000X-0.140000X0.170000X0.140000X0*%
%TD*%
%TA.AperFunction,SMDPad,CuDef*%
%ADD19RoundRect,0.100000X0.637500X0.100000X-0.637500X0.100000X-0.637500X-0.100000X0.637500X-0.100000X0*%
%TD*%
%TA.AperFunction,SMDPad,CuDef*%
%ADD20RoundRect,0.250000X0.450000X0.350000X-0.450000X0.350000X-0.450000X-0.350000X0.450000X-0.350000X0*%
%TD*%
%TA.AperFunction,SMDPad,CuDef*%
%ADD21RoundRect,0.140000X0.170000X-0.140000X0.170000X0.140000X-0.170000X0.140000X-0.170000X-0.140000X0*%
%TD*%
%TA.AperFunction,ViaPad*%
%ADD22C,0.600000*%
%TD*%
%TA.AperFunction,Conductor*%
%ADD23C,0.400000*%
%TD*%
%TA.AperFunction,Conductor*%
%ADD24C,0.500000*%
%TD*%
%TA.AperFunction,Conductor*%
%ADD25C,0.200000*%
%TD*%
G04 APERTURE END LIST*
D10*
D11*
X127815166Y-101323665D02*
X127815166Y-100823665D01*
X127815166Y-100823665D02*
X128100880Y-101323665D01*
X128100880Y-101323665D02*
X128100880Y-100823665D01*
X128338976Y-101323665D02*
X128338976Y-100990332D01*
X128338976Y-100823665D02*
X128315167Y-100847475D01*
X128315167Y-100847475D02*
X128338976Y-100871284D01*
X128338976Y-100871284D02*
X128362786Y-100847475D01*
X128362786Y-100847475D02*
X128338976Y-100823665D01*
X128338976Y-100823665D02*
X128338976Y-100871284D01*
X128791357Y-101299856D02*
X128743738Y-101323665D01*
X128743738Y-101323665D02*
X128648500Y-101323665D01*
X128648500Y-101323665D02*
X128600881Y-101299856D01*
X128600881Y-101299856D02*
X128577071Y-101276046D01*
X128577071Y-101276046D02*
X128553262Y-101228427D01*
X128553262Y-101228427D02*
X128553262Y-101085570D01*
X128553262Y-101085570D02*
X128577071Y-101037951D01*
X128577071Y-101037951D02*
X128600881Y-101014141D01*
X128600881Y-101014141D02*
X128648500Y-100990332D01*
X128648500Y-100990332D02*
X128743738Y-100990332D01*
X128743738Y-100990332D02*
X128791357Y-101014141D01*
X129386594Y-101323665D02*
X129386594Y-100823665D01*
X129386594Y-100823665D02*
X129505642Y-100823665D01*
X129505642Y-100823665D02*
X129577070Y-100847475D01*
X129577070Y-100847475D02*
X129624689Y-100895094D01*
X129624689Y-100895094D02*
X129648499Y-100942713D01*
X129648499Y-100942713D02*
X129672308Y-101037951D01*
X129672308Y-101037951D02*
X129672308Y-101109379D01*
X129672308Y-101109379D02*
X129648499Y-101204617D01*
X129648499Y-101204617D02*
X129624689Y-101252236D01*
X129624689Y-101252236D02*
X129577070Y-101299856D01*
X129577070Y-101299856D02*
X129505642Y-101323665D01*
X129505642Y-101323665D02*
X129386594Y-101323665D01*
X130077070Y-101299856D02*
X130029451Y-101323665D01*
X130029451Y-101323665D02*
X129934213Y-101323665D01*
X129934213Y-101323665D02*
X129886594Y-101299856D01*
X129886594Y-101299856D02*
X129862785Y-101252236D01*
X129862785Y-101252236D02*
X129862785Y-101061760D01*
X129862785Y-101061760D02*
X129886594Y-101014141D01*
X129886594Y-101014141D02*
X129934213Y-100990332D01*
X129934213Y-100990332D02*
X130029451Y-100990332D01*
X130029451Y-100990332D02*
X130077070Y-101014141D01*
X130077070Y-101014141D02*
X130100880Y-101061760D01*
X130100880Y-101061760D02*
X130100880Y-101109379D01*
X130100880Y-101109379D02*
X129862785Y-101156998D01*
X130481832Y-101061760D02*
X130553260Y-101085570D01*
X130553260Y-101085570D02*
X130577070Y-101109379D01*
X130577070Y-101109379D02*
X130600879Y-101156998D01*
X130600879Y-101156998D02*
X130600879Y-101228427D01*
X130600879Y-101228427D02*
X130577070Y-101276046D01*
X130577070Y-101276046D02*
X130553260Y-101299856D01*
X130553260Y-101299856D02*
X130505641Y-101323665D01*
X130505641Y-101323665D02*
X130315165Y-101323665D01*
X130315165Y-101323665D02*
X130315165Y-100823665D01*
X130315165Y-100823665D02*
X130481832Y-100823665D01*
X130481832Y-100823665D02*
X130529451Y-100847475D01*
X130529451Y-100847475D02*
X130553260Y-100871284D01*
X130553260Y-100871284D02*
X130577070Y-100918903D01*
X130577070Y-100918903D02*
X130577070Y-100966522D01*
X130577070Y-100966522D02*
X130553260Y-101014141D01*
X130553260Y-101014141D02*
X130529451Y-101037951D01*
X130529451Y-101037951D02*
X130481832Y-101061760D01*
X130481832Y-101061760D02*
X130315165Y-101061760D01*
X130815165Y-101323665D02*
X130815165Y-100990332D01*
X130815165Y-101085570D02*
X130838975Y-101037951D01*
X130838975Y-101037951D02*
X130862784Y-101014141D01*
X130862784Y-101014141D02*
X130910403Y-100990332D01*
X130910403Y-100990332D02*
X130958022Y-100990332D01*
X131338975Y-100990332D02*
X131338975Y-101323665D01*
X131124689Y-100990332D02*
X131124689Y-101252236D01*
X131124689Y-101252236D02*
X131148499Y-101299856D01*
X131148499Y-101299856D02*
X131196118Y-101323665D01*
X131196118Y-101323665D02*
X131267546Y-101323665D01*
X131267546Y-101323665D02*
X131315165Y-101299856D01*
X131315165Y-101299856D02*
X131338975Y-101276046D01*
X131577070Y-101323665D02*
X131577070Y-100990332D01*
X131577070Y-100823665D02*
X131553261Y-100847475D01*
X131553261Y-100847475D02*
X131577070Y-100871284D01*
X131577070Y-100871284D02*
X131600880Y-100847475D01*
X131600880Y-100847475D02*
X131577070Y-100823665D01*
X131577070Y-100823665D02*
X131577070Y-100871284D01*
X131815165Y-100990332D02*
X131815165Y-101323665D01*
X131815165Y-101037951D02*
X131838975Y-101014141D01*
X131838975Y-101014141D02*
X131886594Y-100990332D01*
X131886594Y-100990332D02*
X131958022Y-100990332D01*
X131958022Y-100990332D02*
X132005641Y-101014141D01*
X132005641Y-101014141D02*
X132029451Y-101061760D01*
X132029451Y-101061760D02*
X132029451Y-101323665D01*
X132624689Y-100871284D02*
X132648498Y-100847475D01*
X132648498Y-100847475D02*
X132696117Y-100823665D01*
X132696117Y-100823665D02*
X132815165Y-100823665D01*
X132815165Y-100823665D02*
X132862784Y-100847475D01*
X132862784Y-100847475D02*
X132886593Y-100871284D01*
X132886593Y-100871284D02*
X132910403Y-100918903D01*
X132910403Y-100918903D02*
X132910403Y-100966522D01*
X132910403Y-100966522D02*
X132886593Y-101037951D01*
X132886593Y-101037951D02*
X132600879Y-101323665D01*
X132600879Y-101323665D02*
X132910403Y-101323665D01*
X133219926Y-100823665D02*
X133267545Y-100823665D01*
X133267545Y-100823665D02*
X133315164Y-100847475D01*
X133315164Y-100847475D02*
X133338974Y-100871284D01*
X133338974Y-100871284D02*
X133362783Y-100918903D01*
X133362783Y-100918903D02*
X133386593Y-101014141D01*
X133386593Y-101014141D02*
X133386593Y-101133189D01*
X133386593Y-101133189D02*
X133362783Y-101228427D01*
X133362783Y-101228427D02*
X133338974Y-101276046D01*
X133338974Y-101276046D02*
X133315164Y-101299856D01*
X133315164Y-101299856D02*
X133267545Y-101323665D01*
X133267545Y-101323665D02*
X133219926Y-101323665D01*
X133219926Y-101323665D02*
X133172307Y-101299856D01*
X133172307Y-101299856D02*
X133148498Y-101276046D01*
X133148498Y-101276046D02*
X133124688Y-101228427D01*
X133124688Y-101228427D02*
X133100879Y-101133189D01*
X133100879Y-101133189D02*
X133100879Y-101014141D01*
X133100879Y-101014141D02*
X133124688Y-100918903D01*
X133124688Y-100918903D02*
X133148498Y-100871284D01*
X133148498Y-100871284D02*
X133172307Y-100847475D01*
X133172307Y-100847475D02*
X133219926Y-100823665D01*
X133577069Y-100871284D02*
X133600878Y-100847475D01*
X133600878Y-100847475D02*
X133648497Y-100823665D01*
X133648497Y-100823665D02*
X133767545Y-100823665D01*
X133767545Y-100823665D02*
X133815164Y-100847475D01*
X133815164Y-100847475D02*
X133838973Y-100871284D01*
X133838973Y-100871284D02*
X133862783Y-100918903D01*
X133862783Y-100918903D02*
X133862783Y-100966522D01*
X133862783Y-100966522D02*
X133838973Y-101037951D01*
X133838973Y-101037951D02*
X133553259Y-101323665D01*
X133553259Y-101323665D02*
X133862783Y-101323665D01*
X134291354Y-100823665D02*
X134196116Y-100823665D01*
X134196116Y-100823665D02*
X134148497Y-100847475D01*
X134148497Y-100847475D02*
X134124687Y-100871284D01*
X134124687Y-100871284D02*
X134077068Y-100942713D01*
X134077068Y-100942713D02*
X134053259Y-101037951D01*
X134053259Y-101037951D02*
X134053259Y-101228427D01*
X134053259Y-101228427D02*
X134077068Y-101276046D01*
X134077068Y-101276046D02*
X134100878Y-101299856D01*
X134100878Y-101299856D02*
X134148497Y-101323665D01*
X134148497Y-101323665D02*
X134243735Y-101323665D01*
X134243735Y-101323665D02*
X134291354Y-101299856D01*
X134291354Y-101299856D02*
X134315163Y-101276046D01*
X134315163Y-101276046D02*
X134338973Y-101228427D01*
X134338973Y-101228427D02*
X134338973Y-101109379D01*
X134338973Y-101109379D02*
X134315163Y-101061760D01*
X134315163Y-101061760D02*
X134291354Y-101037951D01*
X134291354Y-101037951D02*
X134243735Y-101014141D01*
X134243735Y-101014141D02*
X134148497Y-101014141D01*
X134148497Y-101014141D02*
X134100878Y-101037951D01*
X134100878Y-101037951D02*
X134077068Y-101061760D01*
X134077068Y-101061760D02*
X134053259Y-101109379D01*
X128410403Y-101985780D02*
X128648498Y-101985780D01*
X128362784Y-102128637D02*
X128529450Y-101628637D01*
X128529450Y-101628637D02*
X128696117Y-102128637D01*
X128862783Y-101795304D02*
X128862783Y-102128637D01*
X128862783Y-101842923D02*
X128886593Y-101819113D01*
X128886593Y-101819113D02*
X128934212Y-101795304D01*
X128934212Y-101795304D02*
X129005640Y-101795304D01*
X129005640Y-101795304D02*
X129053259Y-101819113D01*
X129053259Y-101819113D02*
X129077069Y-101866732D01*
X129077069Y-101866732D02*
X129077069Y-102128637D01*
X129529450Y-102128637D02*
X129529450Y-101866732D01*
X129529450Y-101866732D02*
X129505640Y-101819113D01*
X129505640Y-101819113D02*
X129458021Y-101795304D01*
X129458021Y-101795304D02*
X129362783Y-101795304D01*
X129362783Y-101795304D02*
X129315164Y-101819113D01*
X129529450Y-102104828D02*
X129481831Y-102128637D01*
X129481831Y-102128637D02*
X129362783Y-102128637D01*
X129362783Y-102128637D02*
X129315164Y-102104828D01*
X129315164Y-102104828D02*
X129291355Y-102057208D01*
X129291355Y-102057208D02*
X129291355Y-102009589D01*
X129291355Y-102009589D02*
X129315164Y-101961970D01*
X129315164Y-101961970D02*
X129362783Y-101938161D01*
X129362783Y-101938161D02*
X129481831Y-101938161D01*
X129481831Y-101938161D02*
X129529450Y-101914351D01*
X129838974Y-102128637D02*
X129791355Y-102104828D01*
X129791355Y-102104828D02*
X129767545Y-102057208D01*
X129767545Y-102057208D02*
X129767545Y-101628637D01*
X130100879Y-102128637D02*
X130053260Y-102104828D01*
X130053260Y-102104828D02*
X130029450Y-102081018D01*
X130029450Y-102081018D02*
X130005641Y-102033399D01*
X130005641Y-102033399D02*
X130005641Y-101890542D01*
X130005641Y-101890542D02*
X130029450Y-101842923D01*
X130029450Y-101842923D02*
X130053260Y-101819113D01*
X130053260Y-101819113D02*
X130100879Y-101795304D01*
X130100879Y-101795304D02*
X130172307Y-101795304D01*
X130172307Y-101795304D02*
X130219926Y-101819113D01*
X130219926Y-101819113D02*
X130243736Y-101842923D01*
X130243736Y-101842923D02*
X130267545Y-101890542D01*
X130267545Y-101890542D02*
X130267545Y-102033399D01*
X130267545Y-102033399D02*
X130243736Y-102081018D01*
X130243736Y-102081018D02*
X130219926Y-102104828D01*
X130219926Y-102104828D02*
X130172307Y-102128637D01*
X130172307Y-102128637D02*
X130100879Y-102128637D01*
X130696117Y-101795304D02*
X130696117Y-102200066D01*
X130696117Y-102200066D02*
X130672307Y-102247685D01*
X130672307Y-102247685D02*
X130648498Y-102271494D01*
X130648498Y-102271494D02*
X130600879Y-102295304D01*
X130600879Y-102295304D02*
X130529450Y-102295304D01*
X130529450Y-102295304D02*
X130481831Y-102271494D01*
X130696117Y-102104828D02*
X130648498Y-102128637D01*
X130648498Y-102128637D02*
X130553260Y-102128637D01*
X130553260Y-102128637D02*
X130505641Y-102104828D01*
X130505641Y-102104828D02*
X130481831Y-102081018D01*
X130481831Y-102081018D02*
X130458022Y-102033399D01*
X130458022Y-102033399D02*
X130458022Y-101890542D01*
X130458022Y-101890542D02*
X130481831Y-101842923D01*
X130481831Y-101842923D02*
X130505641Y-101819113D01*
X130505641Y-101819113D02*
X130553260Y-101795304D01*
X130553260Y-101795304D02*
X130648498Y-101795304D01*
X130648498Y-101795304D02*
X130696117Y-101819113D01*
X131481831Y-101866732D02*
X131315164Y-101866732D01*
X131315164Y-102128637D02*
X131315164Y-101628637D01*
X131315164Y-101628637D02*
X131553259Y-101628637D01*
X131743735Y-102128637D02*
X131743735Y-101628637D01*
X131743735Y-101628637D02*
X131934211Y-101628637D01*
X131934211Y-101628637D02*
X131981830Y-101652447D01*
X131981830Y-101652447D02*
X132005640Y-101676256D01*
X132005640Y-101676256D02*
X132029449Y-101723875D01*
X132029449Y-101723875D02*
X132029449Y-101795304D01*
X132029449Y-101795304D02*
X132005640Y-101842923D01*
X132005640Y-101842923D02*
X131981830Y-101866732D01*
X131981830Y-101866732D02*
X131934211Y-101890542D01*
X131934211Y-101890542D02*
X131743735Y-101890542D01*
X132172307Y-101628637D02*
X132338973Y-102128637D01*
X132338973Y-102128637D02*
X132505640Y-101628637D01*
X133148496Y-101628637D02*
X133243734Y-101628637D01*
X133243734Y-101628637D02*
X133291353Y-101652447D01*
X133291353Y-101652447D02*
X133338972Y-101700066D01*
X133338972Y-101700066D02*
X133362782Y-101795304D01*
X133362782Y-101795304D02*
X133362782Y-101961970D01*
X133362782Y-101961970D02*
X133338972Y-102057208D01*
X133338972Y-102057208D02*
X133291353Y-102104828D01*
X133291353Y-102104828D02*
X133243734Y-102128637D01*
X133243734Y-102128637D02*
X133148496Y-102128637D01*
X133148496Y-102128637D02*
X133100877Y-102104828D01*
X133100877Y-102104828D02*
X133053258Y-102057208D01*
X133053258Y-102057208D02*
X133029449Y-101961970D01*
X133029449Y-101961970D02*
X133029449Y-101795304D01*
X133029449Y-101795304D02*
X133053258Y-101700066D01*
X133053258Y-101700066D02*
X133100877Y-101652447D01*
X133100877Y-101652447D02*
X133148496Y-101628637D01*
X133553259Y-102104828D02*
X133624687Y-102128637D01*
X133624687Y-102128637D02*
X133743735Y-102128637D01*
X133743735Y-102128637D02*
X133791354Y-102104828D01*
X133791354Y-102104828D02*
X133815163Y-102081018D01*
X133815163Y-102081018D02*
X133838973Y-102033399D01*
X133838973Y-102033399D02*
X133838973Y-101985780D01*
X133838973Y-101985780D02*
X133815163Y-101938161D01*
X133815163Y-101938161D02*
X133791354Y-101914351D01*
X133791354Y-101914351D02*
X133743735Y-101890542D01*
X133743735Y-101890542D02*
X133648497Y-101866732D01*
X133648497Y-101866732D02*
X133600878Y-101842923D01*
X133600878Y-101842923D02*
X133577068Y-101819113D01*
X133577068Y-101819113D02*
X133553259Y-101771494D01*
X133553259Y-101771494D02*
X133553259Y-101723875D01*
X133553259Y-101723875D02*
X133577068Y-101676256D01*
X133577068Y-101676256D02*
X133600878Y-101652447D01*
X133600878Y-101652447D02*
X133648497Y-101628637D01*
X133648497Y-101628637D02*
X133767544Y-101628637D01*
X133767544Y-101628637D02*
X133838973Y-101652447D01*
X134053258Y-102128637D02*
X134053258Y-101628637D01*
X134053258Y-101628637D02*
X134172306Y-101628637D01*
X134172306Y-101628637D02*
X134243734Y-101652447D01*
X134243734Y-101652447D02*
X134291353Y-101700066D01*
X134291353Y-101700066D02*
X134315163Y-101747685D01*
X134315163Y-101747685D02*
X134338972Y-101842923D01*
X134338972Y-101842923D02*
X134338972Y-101914351D01*
X134338972Y-101914351D02*
X134315163Y-102009589D01*
X134315163Y-102009589D02*
X134291353Y-102057208D01*
X134291353Y-102057208D02*
X134243734Y-102104828D01*
X134243734Y-102104828D02*
X134172306Y-102128637D01*
X134172306Y-102128637D02*
X134053258Y-102128637D01*
X127124688Y-102933609D02*
X127124688Y-102433609D01*
X127410402Y-102933609D02*
X127196117Y-102647895D01*
X127410402Y-102433609D02*
X127124688Y-102719323D01*
X127553260Y-102433609D02*
X127719926Y-102933609D01*
X127719926Y-102933609D02*
X127886593Y-102433609D01*
X128148497Y-102433609D02*
X128196116Y-102433609D01*
X128196116Y-102433609D02*
X128243735Y-102457419D01*
X128243735Y-102457419D02*
X128267545Y-102481228D01*
X128267545Y-102481228D02*
X128291354Y-102528847D01*
X128291354Y-102528847D02*
X128315164Y-102624085D01*
X128315164Y-102624085D02*
X128315164Y-102743133D01*
X128315164Y-102743133D02*
X128291354Y-102838371D01*
X128291354Y-102838371D02*
X128267545Y-102885990D01*
X128267545Y-102885990D02*
X128243735Y-102909800D01*
X128243735Y-102909800D02*
X128196116Y-102933609D01*
X128196116Y-102933609D02*
X128148497Y-102933609D01*
X128148497Y-102933609D02*
X128100878Y-102909800D01*
X128100878Y-102909800D02*
X128077069Y-102885990D01*
X128077069Y-102885990D02*
X128053259Y-102838371D01*
X128053259Y-102838371D02*
X128029450Y-102743133D01*
X128029450Y-102743133D02*
X128029450Y-102624085D01*
X128029450Y-102624085D02*
X128053259Y-102528847D01*
X128053259Y-102528847D02*
X128077069Y-102481228D01*
X128077069Y-102481228D02*
X128100878Y-102457419D01*
X128100878Y-102457419D02*
X128148497Y-102433609D01*
X128815163Y-102933609D02*
X128648497Y-102695514D01*
X128529449Y-102933609D02*
X128529449Y-102433609D01*
X128529449Y-102433609D02*
X128719925Y-102433609D01*
X128719925Y-102433609D02*
X128767544Y-102457419D01*
X128767544Y-102457419D02*
X128791354Y-102481228D01*
X128791354Y-102481228D02*
X128815163Y-102528847D01*
X128815163Y-102528847D02*
X128815163Y-102600276D01*
X128815163Y-102600276D02*
X128791354Y-102647895D01*
X128791354Y-102647895D02*
X128767544Y-102671704D01*
X128767544Y-102671704D02*
X128719925Y-102695514D01*
X128719925Y-102695514D02*
X128529449Y-102695514D01*
X129338973Y-102600276D02*
X129529449Y-102600276D01*
X129410401Y-102933609D02*
X129410401Y-102505038D01*
X129410401Y-102505038D02*
X129434211Y-102457419D01*
X129434211Y-102457419D02*
X129481830Y-102433609D01*
X129481830Y-102433609D02*
X129529449Y-102433609D01*
X129767544Y-102933609D02*
X129719925Y-102909800D01*
X129719925Y-102909800D02*
X129696115Y-102885990D01*
X129696115Y-102885990D02*
X129672306Y-102838371D01*
X129672306Y-102838371D02*
X129672306Y-102695514D01*
X129672306Y-102695514D02*
X129696115Y-102647895D01*
X129696115Y-102647895D02*
X129719925Y-102624085D01*
X129719925Y-102624085D02*
X129767544Y-102600276D01*
X129767544Y-102600276D02*
X129838972Y-102600276D01*
X129838972Y-102600276D02*
X129886591Y-102624085D01*
X129886591Y-102624085D02*
X129910401Y-102647895D01*
X129910401Y-102647895D02*
X129934210Y-102695514D01*
X129934210Y-102695514D02*
X129934210Y-102838371D01*
X129934210Y-102838371D02*
X129910401Y-102885990D01*
X129910401Y-102885990D02*
X129886591Y-102909800D01*
X129886591Y-102909800D02*
X129838972Y-102933609D01*
X129838972Y-102933609D02*
X129767544Y-102933609D01*
X130148496Y-102933609D02*
X130148496Y-102600276D01*
X130148496Y-102695514D02*
X130172306Y-102647895D01*
X130172306Y-102647895D02*
X130196115Y-102624085D01*
X130196115Y-102624085D02*
X130243734Y-102600276D01*
X130243734Y-102600276D02*
X130291353Y-102600276D01*
X130791353Y-102433609D02*
X130910401Y-102933609D01*
X130910401Y-102933609D02*
X131005639Y-102576466D01*
X131005639Y-102576466D02*
X131100877Y-102933609D01*
X131100877Y-102933609D02*
X131219925Y-102433609D01*
X131410401Y-102933609D02*
X131410401Y-102433609D01*
X131410401Y-102433609D02*
X131600877Y-102433609D01*
X131600877Y-102433609D02*
X131648496Y-102457419D01*
X131648496Y-102457419D02*
X131672306Y-102481228D01*
X131672306Y-102481228D02*
X131696115Y-102528847D01*
X131696115Y-102528847D02*
X131696115Y-102600276D01*
X131696115Y-102600276D02*
X131672306Y-102647895D01*
X131672306Y-102647895D02*
X131648496Y-102671704D01*
X131648496Y-102671704D02*
X131600877Y-102695514D01*
X131600877Y-102695514D02*
X131410401Y-102695514D01*
X131910401Y-102933609D02*
X131910401Y-102433609D01*
X132529448Y-102933609D02*
X132529448Y-102433609D01*
X132529448Y-102671704D02*
X132815162Y-102671704D01*
X132815162Y-102933609D02*
X132815162Y-102433609D01*
X133053258Y-102933609D02*
X133053258Y-102433609D01*
X133053258Y-102433609D02*
X133243734Y-102433609D01*
X133243734Y-102433609D02*
X133291353Y-102457419D01*
X133291353Y-102457419D02*
X133315163Y-102481228D01*
X133315163Y-102481228D02*
X133338972Y-102528847D01*
X133338972Y-102528847D02*
X133338972Y-102600276D01*
X133338972Y-102600276D02*
X133315163Y-102647895D01*
X133315163Y-102647895D02*
X133291353Y-102671704D01*
X133291353Y-102671704D02*
X133243734Y-102695514D01*
X133243734Y-102695514D02*
X133053258Y-102695514D01*
X133838972Y-102933609D02*
X133672306Y-102695514D01*
X133553258Y-102933609D02*
X133553258Y-102433609D01*
X133553258Y-102433609D02*
X133743734Y-102433609D01*
X133743734Y-102433609D02*
X133791353Y-102457419D01*
X133791353Y-102457419D02*
X133815163Y-102481228D01*
X133815163Y-102481228D02*
X133838972Y-102528847D01*
X133838972Y-102528847D02*
X133838972Y-102600276D01*
X133838972Y-102600276D02*
X133815163Y-102647895D01*
X133815163Y-102647895D02*
X133791353Y-102671704D01*
X133791353Y-102671704D02*
X133743734Y-102695514D01*
X133743734Y-102695514D02*
X133553258Y-102695514D01*
X134338972Y-102885990D02*
X134315163Y-102909800D01*
X134315163Y-102909800D02*
X134243734Y-102933609D01*
X134243734Y-102933609D02*
X134196115Y-102933609D01*
X134196115Y-102933609D02*
X134124687Y-102909800D01*
X134124687Y-102909800D02*
X134077068Y-102862180D01*
X134077068Y-102862180D02*
X134053258Y-102814561D01*
X134053258Y-102814561D02*
X134029449Y-102719323D01*
X134029449Y-102719323D02*
X134029449Y-102647895D01*
X134029449Y-102647895D02*
X134053258Y-102552657D01*
X134053258Y-102552657D02*
X134077068Y-102505038D01*
X134077068Y-102505038D02*
X134124687Y-102457419D01*
X134124687Y-102457419D02*
X134196115Y-102433609D01*
X134196115Y-102433609D02*
X134243734Y-102433609D01*
X134243734Y-102433609D02*
X134315163Y-102457419D01*
X134315163Y-102457419D02*
X134338972Y-102481228D01*
D12*
%TO.P,TP1,1,1*%
%TO.N,+5V*%
X124500000Y-94000000D03*
%TD*%
D13*
%TO.P,R2,1*%
%TO.N,Net-(C5-Pad2)*%
X127260000Y-99250000D03*
%TO.P,R2,2*%
%TO.N,Net-(R2-Pad2)*%
X126240000Y-99250000D03*
%TD*%
%TO.P,R3,1*%
%TO.N,Net-(R3-Pad1)*%
X134000000Y-83000000D03*
%TO.P,R3,2*%
%TO.N,Net-(U1-LOS)*%
X132980000Y-83000000D03*
%TD*%
D12*
%TO.P,TP9,1,1*%
%TO.N,GND*%
X134000000Y-75920000D03*
%TD*%
%TO.P,TP4,1,1*%
%TO.N,+5V*%
X124500000Y-88830000D03*
%TD*%
D14*
%TO.P,C5,1*%
%TO.N,Net-(U1-VOUT)*%
X127250000Y-96200000D03*
%TO.P,C5,2*%
%TO.N,Net-(C5-Pad2)*%
X127250000Y-97750000D03*
%TD*%
D15*
%TO.P,TP10,1,1*%
%TO.N,Net-(U1-CS_)*%
X127960000Y-76960000D03*
%TD*%
%TO.P,TP13,1,1*%
%TO.N,Net-(U1-SDOUT)*%
X130500000Y-79500000D03*
%TD*%
D16*
%TO.P,R1,1*%
%TO.N,Net-(C4-Pad2)*%
X124250000Y-82260000D03*
%TO.P,R1,2*%
%TO.N,GND*%
X124250000Y-81240000D03*
%TD*%
D17*
%TO.P,C1,1*%
%TO.N,+5V*%
X125460000Y-90500000D03*
%TO.P,C1,2*%
%TO.N,GND*%
X124500000Y-90500000D03*
%TD*%
%TO.P,C2,1*%
%TO.N,+5V*%
X125500000Y-91500000D03*
%TO.P,C2,2*%
%TO.N,GND*%
X124540000Y-91500000D03*
%TD*%
D12*
%TO.P,TP7,1,1*%
%TO.N,Net-(R3-Pad1)*%
X134000000Y-81000000D03*
%TD*%
D18*
%TO.P,C4,1*%
%TO.N,Net-(U1-VIN)*%
X125250000Y-81270000D03*
%TO.P,C4,2*%
%TO.N,Net-(C4-Pad2)*%
X125250000Y-82230000D03*
%TD*%
D19*
%TO.P,U1,1,NC*%
%TO.N,unconnected-(U1-NC-Pad1)*%
X132725000Y-93050000D03*
%TO.P,U1,2,NC*%
%TO.N,unconnected-(U1-NC-Pad2)*%
X132725000Y-92400000D03*
%TO.P,U1,3,DVDD*%
%TO.N,+5V*%
X132725000Y-91750000D03*
%TO.P,U1,4,DGND*%
%TO.N,GND*%
X132725000Y-91100000D03*
%TO.P,U1,5,CLKIN*%
%TO.N,Net-(U1-CLKIN)*%
X132725000Y-90450000D03*
%TO.P,U1,6,XFB*%
%TO.N,Net-(U1-XFB)*%
X132725000Y-89800000D03*
%TO.P,U1,7,CLKOUT*%
%TO.N,unconnected-(U1-CLKOUT-Pad7)*%
X132725000Y-89150000D03*
%TO.P,U1,8,CS_*%
%TO.N,Net-(U1-CS_)*%
X132725000Y-88500000D03*
%TO.P,U1,9,SDIN*%
%TO.N,Net-(U1-SDIN)*%
X132725000Y-87850000D03*
%TO.P,U1,10,SCLK*%
%TO.N,Net-(U1-SCLK)*%
X132725000Y-87200000D03*
%TO.P,U1,11,SDOUT*%
%TO.N,Net-(U1-SDOUT)*%
X132725000Y-86550000D03*
%TO.P,U1,12,LOS*%
%TO.N,Net-(U1-LOS)*%
X132725000Y-85900000D03*
%TO.P,U1,13,NC*%
%TO.N,unconnected-(U1-NC-Pad13)*%
X132725000Y-85250000D03*
%TO.P,U1,14,NC*%
%TO.N,unconnected-(U1-NC-Pad14)*%
X132725000Y-84600000D03*
%TO.P,U1,15,NC*%
%TO.N,unconnected-(U1-NC-Pad15)*%
X127000000Y-84600000D03*
%TO.P,U1,16,NC*%
%TO.N,unconnected-(U1-NC-Pad16)*%
X127000000Y-85250000D03*
%TO.P,U1,17,VSYNC_*%
%TO.N,unconnected-(U1-VSYNC_-Pad17)*%
X127000000Y-85900000D03*
%TO.P,U1,18,HSYNC_*%
%TO.N,unconnected-(U1-HSYNC_-Pad18)*%
X127000000Y-86550000D03*
%TO.P,U1,19,RESET_*%
%TO.N,+5V*%
X127000000Y-87200000D03*
%TO.P,U1,20,AGND*%
%TO.N,GND*%
X127000000Y-87850000D03*
%TO.P,U1,21,AVDD*%
%TO.N,+5V*%
X127000000Y-88500000D03*
%TO.P,U1,22,VIN*%
%TO.N,Net-(U1-VIN)*%
X127000000Y-89150000D03*
%TO.P,U1,23,PGND*%
%TO.N,GND*%
X127000000Y-89800000D03*
%TO.P,U1,24,PVDD*%
%TO.N,+5V*%
X127000000Y-90450000D03*
%TO.P,U1,25,SAG*%
%TO.N,Net-(U1-SAG)*%
X127000000Y-91100000D03*
%TO.P,U1,26,VOUT*%
%TO.N,Net-(U1-VOUT)*%
X127000000Y-91750000D03*
%TO.P,U1,27,NC*%
%TO.N,unconnected-(U1-NC-Pad27)*%
X127000000Y-92400000D03*
%TO.P,U1,28,NC*%
%TO.N,unconnected-(U1-NC-Pad28)*%
X127000000Y-93050000D03*
%TD*%
D12*
%TO.P,TP8,1,1*%
%TO.N,Net-(U1-LOS)*%
X134000000Y-78460000D03*
%TD*%
D20*
%TO.P,Y1,1,1*%
%TO.N,Net-(U1-CLKIN)*%
X133350000Y-96150000D03*
%TO.P,Y1,2,G*%
%TO.N,GND*%
X131150000Y-96150000D03*
%TO.P,Y1,3,3*%
%TO.N,Net-(U1-XFB)*%
X131150000Y-97850000D03*
%TO.P,Y1,4,G*%
%TO.N,GND*%
X133350000Y-97850000D03*
%TD*%
D15*
%TO.P,TP12,1,1*%
%TO.N,Net-(U1-SCLK)*%
X130500000Y-76960000D03*
%TD*%
D12*
%TO.P,TP2,1,1*%
%TO.N,GND*%
X124500000Y-96540000D03*
%TD*%
%TO.P,TP3,1,1*%
%TO.N,Net-(R2-Pad2)*%
X124500000Y-99080000D03*
%TD*%
D21*
%TO.P,C3,1*%
%TO.N,+5V*%
X134250000Y-91960000D03*
%TO.P,C3,2*%
%TO.N,GND*%
X134250000Y-91000000D03*
%TD*%
D14*
%TO.P,C6,1*%
%TO.N,Net-(U1-SAG)*%
X129000000Y-96200000D03*
%TO.P,C6,2*%
%TO.N,Net-(C5-Pad2)*%
X129000000Y-97750000D03*
%TD*%
D15*
%TO.P,TP11,1,1*%
%TO.N,Net-(U1-SDIN)*%
X127960000Y-79500000D03*
%TD*%
D12*
%TO.P,TP5,1,1*%
%TO.N,GND*%
X124500000Y-86290000D03*
%TD*%
%TO.P,TP6,1,1*%
%TO.N,Net-(C4-Pad2)*%
X124500000Y-83750000D03*
%TD*%
D22*
%TO.N,GND*%
X126000000Y-94750000D03*
X130000000Y-99500000D03*
X128799265Y-89500000D03*
X124500000Y-92250000D03*
X124750000Y-79250000D03*
X134450000Y-90000000D03*
X132250000Y-76250000D03*
%TO.N,+5V*%
X131500000Y-91750000D03*
X129250000Y-90500000D03*
%TD*%
D23*
%TO.N,GND*%
X134150000Y-91100000D02*
X132725000Y-91100000D01*
D24*
X131150000Y-96150000D02*
X131400000Y-96150000D01*
D23*
X134250000Y-91000000D02*
X134150000Y-91100000D01*
X128700000Y-89800000D02*
X127000000Y-89800000D01*
X134450000Y-90000000D02*
X134450000Y-90800000D01*
X134450000Y-90800000D02*
X134250000Y-91000000D01*
D24*
X133100000Y-97850000D02*
X133350000Y-97850000D01*
X131400000Y-96150000D02*
X133100000Y-97850000D01*
D23*
X127000000Y-87850000D02*
X126060000Y-87850000D01*
X128799265Y-89700735D02*
X128700000Y-89800000D01*
D25*
X124500000Y-90500000D02*
X124500000Y-91460000D01*
D23*
X126060000Y-87850000D02*
X124500000Y-86290000D01*
D25*
X124500000Y-91460000D02*
X124540000Y-91500000D01*
D23*
X128799265Y-89500000D02*
X128799265Y-89700735D01*
%TO.N,+5V*%
X127900058Y-88500000D02*
X128149000Y-88251058D01*
X126201208Y-90450000D02*
X125861500Y-90110292D01*
X125500000Y-93000000D02*
X124500000Y-94000000D01*
X127798792Y-87200000D02*
X127000000Y-87200000D01*
X128149000Y-88251058D02*
X128149000Y-87550208D01*
X125861500Y-90110292D02*
X125861500Y-88839708D01*
X125460000Y-89790000D02*
X125460000Y-90500000D01*
X129200000Y-90450000D02*
X129250000Y-90500000D01*
X125861500Y-88839708D02*
X126201208Y-88500000D01*
X127000000Y-90450000D02*
X125510000Y-90450000D01*
X131500000Y-91750000D02*
X132725000Y-91750000D01*
X127000000Y-90450000D02*
X126201208Y-90450000D01*
X124830000Y-88500000D02*
X124500000Y-88830000D01*
X128149000Y-87550208D02*
X127798792Y-87200000D01*
X125460000Y-91460000D02*
X125500000Y-91500000D01*
X125460000Y-90500000D02*
X125460000Y-91460000D01*
X125510000Y-90450000D02*
X125460000Y-90500000D01*
X134040000Y-91750000D02*
X132725000Y-91750000D01*
X127000000Y-90450000D02*
X129200000Y-90450000D01*
X134250000Y-91960000D02*
X134040000Y-91750000D01*
X127000000Y-88500000D02*
X126201208Y-88500000D01*
X124500000Y-88830000D02*
X125460000Y-89790000D01*
X127000000Y-88500000D02*
X127900058Y-88500000D01*
X127000000Y-88500000D02*
X124830000Y-88500000D01*
X125500000Y-91500000D02*
X125500000Y-93000000D01*
%TO.N,Net-(U1-VIN)*%
X128500000Y-86500000D02*
X128750000Y-86750000D01*
X125961000Y-81981000D02*
X128500000Y-84520000D01*
X128750000Y-86750000D02*
X128750000Y-88500000D01*
X125961000Y-81862030D02*
X125961000Y-81981000D01*
X128750000Y-88500000D02*
X128100000Y-89150000D01*
X125529000Y-81549000D02*
X125647970Y-81549000D01*
X128100000Y-89150000D02*
X127000000Y-89150000D01*
X125250000Y-81270000D02*
X125529000Y-81549000D01*
X128500000Y-84520000D02*
X128500000Y-86500000D01*
X125647970Y-81549000D02*
X125961000Y-81862030D01*
D25*
%TO.N,Net-(C4-Pad2)*%
X124500000Y-83750000D02*
X124500000Y-82980000D01*
D23*
X124500000Y-83750000D02*
X124500000Y-82510000D01*
X124500000Y-82510000D02*
X124250000Y-82260000D01*
X124500000Y-82980000D02*
X125250000Y-82230000D01*
%TO.N,Net-(U1-VOUT)*%
X128250000Y-95200000D02*
X128250000Y-92201208D01*
X128250000Y-92201208D02*
X127798792Y-91750000D01*
X127798792Y-91750000D02*
X127000000Y-91750000D01*
X127250000Y-96200000D02*
X128250000Y-95200000D01*
%TO.N,Net-(C5-Pad2)*%
X129000000Y-97750000D02*
X127250000Y-97750000D01*
X127260000Y-97760000D02*
X127250000Y-97750000D01*
X127260000Y-99250000D02*
X127260000Y-97760000D01*
%TO.N,Net-(U1-SAG)*%
X129000000Y-92000000D02*
X128100000Y-91100000D01*
X128100000Y-91100000D02*
X127000000Y-91100000D01*
X129000000Y-96200000D02*
X129000000Y-92000000D01*
%TO.N,Net-(R2-Pad2)*%
X124500000Y-99080000D02*
X126070000Y-99080000D01*
X126070000Y-99080000D02*
X126240000Y-99250000D01*
D25*
%TO.N,Net-(U1-LOS)*%
X133763500Y-83783500D02*
X133763500Y-85598999D01*
X132750000Y-79710000D02*
X132750000Y-82770000D01*
X133462499Y-85900000D02*
X132725000Y-85900000D01*
X134000000Y-78460000D02*
X132750000Y-79710000D01*
X133763500Y-85598999D02*
X133462499Y-85900000D01*
X132750000Y-82770000D02*
X132980000Y-83000000D01*
X132980000Y-83000000D02*
X133763500Y-83783500D01*
%TO.N,Net-(R3-Pad1)*%
X134000000Y-81000000D02*
X134000000Y-83000000D01*
D23*
%TO.N,Net-(U1-XFB)*%
X130000000Y-97400000D02*
X130450000Y-97850000D01*
X130450000Y-97850000D02*
X131150000Y-97850000D01*
X131450000Y-89800000D02*
X130000000Y-91250000D01*
X132725000Y-89800000D02*
X131450000Y-89800000D01*
X130000000Y-91250000D02*
X130000000Y-97400000D01*
%TO.N,Net-(U1-CLKIN)*%
X133350000Y-96150000D02*
X130750000Y-93550000D01*
X130750000Y-93550000D02*
X130750000Y-91500000D01*
X130750000Y-91500000D02*
X131800000Y-90450000D01*
X131800000Y-90450000D02*
X132725000Y-90450000D01*
D25*
%TO.N,Net-(U1-CS_)*%
X131987501Y-88500000D02*
X129000000Y-85512499D01*
X126750000Y-78170000D02*
X127960000Y-76960000D01*
X132725000Y-88500000D02*
X131987501Y-88500000D01*
X126750000Y-81000000D02*
X126750000Y-78170000D01*
X129000000Y-83250000D02*
X126750000Y-81000000D01*
X129000000Y-85512499D02*
X129000000Y-83250000D01*
%TO.N,Net-(U1-SDIN)*%
X129500000Y-85362499D02*
X129500000Y-81040000D01*
X132725000Y-87850000D02*
X131987501Y-87850000D01*
X129500000Y-81040000D02*
X127960000Y-79500000D01*
X131987501Y-87850000D02*
X129500000Y-85362499D01*
%TO.N,Net-(U1-SCLK)*%
X129699000Y-80301000D02*
X129699000Y-78699000D01*
X131987501Y-87200000D02*
X130000000Y-85212499D01*
X130000000Y-77460000D02*
X130500000Y-76960000D01*
X132725000Y-87200000D02*
X131987501Y-87200000D01*
X129699000Y-78699000D02*
X130000000Y-78699000D01*
X130000000Y-80301000D02*
X129699000Y-80301000D01*
X130000000Y-78699000D02*
X130000000Y-77460000D01*
X130000000Y-85212499D02*
X130000000Y-80301000D01*
%TO.N,Net-(U1-SDOUT)*%
X130500000Y-85062499D02*
X130500000Y-79500000D01*
X132725000Y-86550000D02*
X131987501Y-86550000D01*
X131987501Y-86550000D02*
X130500000Y-85062499D01*
%TD*%
%TA.AperFunction,Conductor*%
%TO.N,GND*%
G36*
X133543039Y-97869685D02*
G01*
X133588794Y-97922489D01*
X133600000Y-97974000D01*
X133600000Y-98949999D01*
X133849972Y-98949999D01*
X133849986Y-98949998D01*
X133952697Y-98939505D01*
X134119119Y-98884358D01*
X134119124Y-98884356D01*
X134268345Y-98792315D01*
X134392315Y-98668345D01*
X134484356Y-98519124D01*
X134484358Y-98519119D01*
X134507794Y-98448395D01*
X134547566Y-98390950D01*
X134612082Y-98364127D01*
X134680858Y-98376442D01*
X134732058Y-98423985D01*
X134749500Y-98487399D01*
X134749500Y-100140438D01*
X134729815Y-100207477D01*
X134677011Y-100253232D01*
X134625500Y-100264438D01*
X127689176Y-100264438D01*
X127622137Y-100244753D01*
X127576382Y-100191949D01*
X127566438Y-100122791D01*
X127595463Y-100059235D01*
X127643318Y-100028480D01*
X127642231Y-100025968D01*
X127649385Y-100022871D01*
X127649393Y-100022869D01*
X127787598Y-99941135D01*
X127901135Y-99827598D01*
X127982869Y-99689393D01*
X128027665Y-99535204D01*
X128030500Y-99499181D01*
X128030499Y-99000820D01*
X128027665Y-98964796D01*
X127982869Y-98810607D01*
X127977765Y-98801976D01*
X127973415Y-98786074D01*
X127965523Y-98773794D01*
X127960500Y-98738859D01*
X127960500Y-98591874D01*
X127980185Y-98524835D01*
X127996819Y-98504193D01*
X128014193Y-98486819D01*
X128075516Y-98453334D01*
X128101874Y-98450500D01*
X128148126Y-98450500D01*
X128215165Y-98470185D01*
X128235807Y-98486819D01*
X128296955Y-98547967D01*
X128296959Y-98547970D01*
X128441294Y-98636998D01*
X128441297Y-98636999D01*
X128441303Y-98637003D01*
X128602292Y-98690349D01*
X128701655Y-98700500D01*
X129298344Y-98700499D01*
X129298352Y-98700498D01*
X129298355Y-98700498D01*
X129352760Y-98694940D01*
X129397708Y-98690349D01*
X129558697Y-98637003D01*
X129703044Y-98547968D01*
X129802473Y-98448538D01*
X129863792Y-98415056D01*
X129933484Y-98420040D01*
X129989418Y-98461911D01*
X130007856Y-98497215D01*
X130015184Y-98519329D01*
X130015187Y-98519336D01*
X130032847Y-98547967D01*
X130107288Y-98668656D01*
X130231344Y-98792712D01*
X130380666Y-98884814D01*
X130547203Y-98939999D01*
X130649991Y-98950500D01*
X131650008Y-98950499D01*
X131650016Y-98950498D01*
X131650019Y-98950498D01*
X131706302Y-98944748D01*
X131752797Y-98939999D01*
X131919334Y-98884814D01*
X132068656Y-98792712D01*
X132162675Y-98698692D01*
X132223994Y-98665210D01*
X132293686Y-98670194D01*
X132338034Y-98698695D01*
X132431654Y-98792315D01*
X132580875Y-98884356D01*
X132580880Y-98884358D01*
X132747302Y-98939505D01*
X132747309Y-98939506D01*
X132850019Y-98949999D01*
X133099999Y-98949999D01*
X133100000Y-98949998D01*
X133100000Y-97974000D01*
X133119685Y-97906961D01*
X133172489Y-97861206D01*
X133224000Y-97850000D01*
X133476000Y-97850000D01*
X133543039Y-97869685D01*
G37*
%TD.AperFunction*%
%TA.AperFunction,Conductor*%
G36*
X125975978Y-93617191D02*
G01*
X126008130Y-93634997D01*
X126059657Y-93674535D01*
X126059658Y-93674535D01*
X126059659Y-93674536D01*
X126205738Y-93735044D01*
X126323139Y-93750500D01*
X127425500Y-93750499D01*
X127492539Y-93770184D01*
X127538294Y-93822987D01*
X127549500Y-93874499D01*
X127549500Y-94858480D01*
X127529815Y-94925519D01*
X127513181Y-94946161D01*
X127246160Y-95213181D01*
X127184837Y-95246666D01*
X127158480Y-95249500D01*
X126951663Y-95249500D01*
X126951644Y-95249501D01*
X126852292Y-95259650D01*
X126852289Y-95259651D01*
X126691305Y-95312996D01*
X126691294Y-95313001D01*
X126546959Y-95402029D01*
X126546955Y-95402032D01*
X126427032Y-95521955D01*
X126427029Y-95521959D01*
X126338001Y-95666294D01*
X126337996Y-95666305D01*
X126284651Y-95827290D01*
X126274500Y-95926647D01*
X126274500Y-96473337D01*
X126274501Y-96473355D01*
X126284650Y-96572707D01*
X126284651Y-96572710D01*
X126337996Y-96733694D01*
X126338001Y-96733705D01*
X126427029Y-96878040D01*
X126427032Y-96878044D01*
X126436307Y-96887319D01*
X126469792Y-96948642D01*
X126464808Y-97018334D01*
X126436307Y-97062681D01*
X126427032Y-97071955D01*
X126427029Y-97071959D01*
X126338001Y-97216294D01*
X126337996Y-97216305D01*
X126284651Y-97377290D01*
X126274500Y-97476647D01*
X126274500Y-98023337D01*
X126274501Y-98023355D01*
X126284650Y-98122707D01*
X126284651Y-98122711D01*
X126319032Y-98226465D01*
X126321434Y-98296294D01*
X126285702Y-98356336D01*
X126223181Y-98387528D01*
X126177135Y-98387086D01*
X126138998Y-98379500D01*
X126138994Y-98379500D01*
X126138993Y-98379500D01*
X125537180Y-98379500D01*
X125470141Y-98359815D01*
X125437913Y-98329811D01*
X125357546Y-98222454D01*
X125334709Y-98205358D01*
X125242335Y-98136206D01*
X125242328Y-98136202D01*
X125107482Y-98085908D01*
X125107483Y-98085908D01*
X125047883Y-98079501D01*
X125047881Y-98079500D01*
X125047873Y-98079500D01*
X125047864Y-98079500D01*
X123952129Y-98079500D01*
X123952120Y-98079501D01*
X123887752Y-98086420D01*
X123818992Y-98074012D01*
X123767856Y-98026400D01*
X123750500Y-97963130D01*
X123750500Y-97656363D01*
X123770185Y-97589324D01*
X123822989Y-97543569D01*
X123887758Y-97533074D01*
X123952160Y-97539999D01*
X123952172Y-97540000D01*
X124250000Y-97540000D01*
X124750000Y-97540000D01*
X125047828Y-97540000D01*
X125047844Y-97539999D01*
X125107372Y-97533598D01*
X125107379Y-97533596D01*
X125242086Y-97483354D01*
X125242093Y-97483350D01*
X125357187Y-97397190D01*
X125357190Y-97397187D01*
X125443350Y-97282093D01*
X125443354Y-97282086D01*
X125493596Y-97147379D01*
X125493598Y-97147372D01*
X125499999Y-97087844D01*
X125500000Y-97087827D01*
X125500000Y-96790000D01*
X124750000Y-96790000D01*
X124750000Y-97540000D01*
X124250000Y-97540000D01*
X124250000Y-96589728D01*
X124288060Y-96681614D01*
X124358386Y-96751940D01*
X124450272Y-96790000D01*
X124549728Y-96790000D01*
X124641614Y-96751940D01*
X124711940Y-96681614D01*
X124750000Y-96589728D01*
X124750000Y-96490272D01*
X124711940Y-96398386D01*
X124641614Y-96328060D01*
X124549728Y-96290000D01*
X124750000Y-96290000D01*
X125500000Y-96290000D01*
X125500000Y-95992172D01*
X125499999Y-95992155D01*
X125493598Y-95932627D01*
X125493596Y-95932620D01*
X125443354Y-95797913D01*
X125443350Y-95797906D01*
X125357190Y-95682812D01*
X125357187Y-95682809D01*
X125242093Y-95596649D01*
X125242086Y-95596645D01*
X125107379Y-95546403D01*
X125107372Y-95546401D01*
X125047844Y-95540000D01*
X124750000Y-95540000D01*
X124750000Y-96290000D01*
X124549728Y-96290000D01*
X124450272Y-96290000D01*
X124358386Y-96328060D01*
X124288060Y-96398386D01*
X124250000Y-96490272D01*
X124250000Y-95540000D01*
X123952155Y-95540000D01*
X123887756Y-95546925D01*
X123818996Y-95534520D01*
X123767859Y-95486910D01*
X123750500Y-95423636D01*
X123750500Y-95116868D01*
X123770185Y-95049829D01*
X123822989Y-95004074D01*
X123887756Y-94993579D01*
X123892516Y-94994090D01*
X123892517Y-94994091D01*
X123952127Y-95000500D01*
X125047872Y-95000499D01*
X125107483Y-94994091D01*
X125242331Y-94943796D01*
X125357546Y-94857546D01*
X125443796Y-94742331D01*
X125494091Y-94607483D01*
X125500500Y-94547873D01*
X125500499Y-94041517D01*
X125520183Y-93974479D01*
X125536813Y-93953842D01*
X125844965Y-93645690D01*
X125906286Y-93612207D01*
X125975978Y-93617191D01*
G37*
%TD.AperFunction*%
%TA.AperFunction,Conductor*%
G36*
X124622539Y-90519685D02*
G01*
X124668294Y-90572489D01*
X124679500Y-90624000D01*
X124679500Y-90734697D01*
X124682356Y-90770991D01*
X124682357Y-90770997D01*
X124727504Y-90926390D01*
X124727507Y-90926398D01*
X124742231Y-90951294D01*
X124746581Y-90967194D01*
X124754477Y-90979481D01*
X124759500Y-91014416D01*
X124759500Y-91083514D01*
X124754576Y-91118109D01*
X124722357Y-91229002D01*
X124722356Y-91229008D01*
X124719500Y-91265302D01*
X124719500Y-91734697D01*
X124722356Y-91770991D01*
X124722357Y-91770997D01*
X124767504Y-91926390D01*
X124767504Y-91926392D01*
X124767506Y-91926395D01*
X124772730Y-91935229D01*
X124790000Y-91998352D01*
X124790000Y-92328089D01*
X124791741Y-92330422D01*
X124799500Y-92373596D01*
X124799500Y-92658480D01*
X124779815Y-92725519D01*
X124763181Y-92746161D01*
X124546161Y-92963181D01*
X124484838Y-92996666D01*
X124458480Y-92999500D01*
X123952129Y-92999500D01*
X123952120Y-92999501D01*
X123887752Y-93006420D01*
X123818992Y-92994012D01*
X123767856Y-92946400D01*
X123750500Y-92883130D01*
X123750500Y-92224960D01*
X123770185Y-92157921D01*
X123822989Y-92112166D01*
X123892147Y-92102222D01*
X123955703Y-92131247D01*
X123962181Y-92137279D01*
X124004616Y-92179714D01*
X124004625Y-92179721D01*
X124143804Y-92262031D01*
X124290000Y-92304504D01*
X124290000Y-91440000D01*
X124286319Y-91436319D01*
X124252834Y-91374996D01*
X124250000Y-91348638D01*
X124250000Y-90624000D01*
X124252550Y-90615314D01*
X124251262Y-90606353D01*
X124262240Y-90582312D01*
X124269685Y-90556961D01*
X124276525Y-90551033D01*
X124280287Y-90542797D01*
X124302521Y-90528507D01*
X124322489Y-90511206D01*
X124333003Y-90508918D01*
X124339065Y-90505023D01*
X124374000Y-90500000D01*
X124555500Y-90500000D01*
X124622539Y-90519685D01*
G37*
%TD.AperFunction*%
%TA.AperFunction,Conductor*%
G36*
X134646239Y-83650798D02*
G01*
X134668834Y-83652414D01*
X134679200Y-83660174D01*
X134691654Y-83663717D01*
X134706632Y-83680710D01*
X134724767Y-83694286D01*
X134729292Y-83706418D01*
X134737854Y-83716132D01*
X134741267Y-83738525D01*
X134749184Y-83759750D01*
X134749500Y-83768596D01*
X134749500Y-90124112D01*
X134729815Y-90191151D01*
X134677011Y-90236906D01*
X134607853Y-90246850D01*
X134590906Y-90243189D01*
X134520912Y-90222854D01*
X134500000Y-90221209D01*
X134500000Y-90876000D01*
X134480315Y-90943039D01*
X134427511Y-90988794D01*
X134404234Y-90996743D01*
X134172738Y-91050876D01*
X134171738Y-91050820D01*
X134170861Y-91051299D01*
X134120318Y-91051751D01*
X134109001Y-91049500D01*
X134108994Y-91049500D01*
X134108993Y-91049500D01*
X133987582Y-91049500D01*
X133920543Y-91029815D01*
X133874788Y-90977011D01*
X133864844Y-90907853D01*
X133875951Y-90871514D01*
X133881479Y-90860082D01*
X133887036Y-90852841D01*
X133899298Y-90823235D01*
X133900857Y-90820014D01*
X133922000Y-90796673D01*
X133941767Y-90772144D01*
X133945280Y-90770974D01*
X133947765Y-90768232D01*
X133978170Y-90760027D01*
X133995860Y-90754139D01*
X134000000Y-90750000D01*
X134000000Y-90221208D01*
X133976274Y-90199277D01*
X133940407Y-90139316D01*
X133942651Y-90069483D01*
X133945887Y-90060762D01*
X133947544Y-90056762D01*
X133963000Y-89939361D01*
X133962999Y-89660640D01*
X133947544Y-89543238D01*
X133938934Y-89522454D01*
X133931465Y-89452986D01*
X133938935Y-89427545D01*
X133947544Y-89406762D01*
X133963000Y-89289361D01*
X133962999Y-89010640D01*
X133947544Y-88893238D01*
X133938934Y-88872454D01*
X133931465Y-88802986D01*
X133938935Y-88777545D01*
X133947544Y-88756762D01*
X133963000Y-88639361D01*
X133962999Y-88360640D01*
X133947544Y-88243238D01*
X133938934Y-88222454D01*
X133931465Y-88152986D01*
X133938935Y-88127545D01*
X133947544Y-88106762D01*
X133963000Y-87989361D01*
X133962999Y-87710640D01*
X133947544Y-87593238D01*
X133938934Y-87572454D01*
X133931465Y-87502986D01*
X133938935Y-87477545D01*
X133947544Y-87456762D01*
X133963000Y-87339361D01*
X133962999Y-87060640D01*
X133947544Y-86943238D01*
X133947542Y-86943234D01*
X133938935Y-86922455D01*
X133931465Y-86852986D01*
X133938935Y-86827545D01*
X133945277Y-86812234D01*
X133947544Y-86806762D01*
X133963000Y-86689361D01*
X133962999Y-86410640D01*
X133952146Y-86328194D01*
X133962912Y-86259159D01*
X133987400Y-86224332D01*
X134244020Y-85967715D01*
X134323077Y-85830783D01*
X134364001Y-85678056D01*
X134364001Y-85519941D01*
X134364001Y-85512346D01*
X134364000Y-85512328D01*
X134364000Y-83858615D01*
X134366401Y-83850435D01*
X134365117Y-83842007D01*
X134376098Y-83817411D01*
X134383685Y-83791576D01*
X134390869Y-83784330D01*
X134393603Y-83778208D01*
X134413777Y-83761226D01*
X134420080Y-83754871D01*
X134422453Y-83753317D01*
X134527598Y-83691135D01*
X134546868Y-83671864D01*
X134557580Y-83664852D01*
X134579261Y-83658285D01*
X134599142Y-83647430D01*
X134612056Y-83648353D01*
X134624451Y-83644600D01*
X134646239Y-83650798D01*
G37*
%TD.AperFunction*%
%TA.AperFunction,Conductor*%
G36*
X129655703Y-87017883D02*
G01*
X129662181Y-87023915D01*
X131462595Y-88824329D01*
X131496080Y-88885652D01*
X131497853Y-88928195D01*
X131489385Y-88992518D01*
X131461119Y-89056414D01*
X131402795Y-89094886D01*
X131386932Y-89098067D01*
X131386981Y-89098311D01*
X131245677Y-89126418D01*
X131245667Y-89126421D01*
X131118192Y-89179222D01*
X131003454Y-89255887D01*
X130137982Y-90121359D01*
X130076659Y-90154844D01*
X130006967Y-90149860D01*
X129951034Y-90107988D01*
X129947199Y-90102569D01*
X129871789Y-89989711D01*
X129871786Y-89989707D01*
X129760292Y-89878213D01*
X129760288Y-89878210D01*
X129629185Y-89790609D01*
X129629172Y-89790602D01*
X129483501Y-89730264D01*
X129483489Y-89730261D01*
X129328845Y-89699500D01*
X129328842Y-89699500D01*
X129171158Y-89699500D01*
X129171155Y-89699500D01*
X129016511Y-89730260D01*
X129016506Y-89730262D01*
X129016504Y-89730262D01*
X129016503Y-89730263D01*
X128992844Y-89740062D01*
X128984670Y-89741688D01*
X128980331Y-89744477D01*
X128945396Y-89749500D01*
X128790520Y-89749500D01*
X128723481Y-89729815D01*
X128677726Y-89677011D01*
X128667782Y-89607853D01*
X128696807Y-89544297D01*
X128702839Y-89537819D01*
X129294111Y-88946546D01*
X129294112Y-88946545D01*
X129294114Y-88946543D01*
X129370775Y-88831811D01*
X129373597Y-88825000D01*
X129423578Y-88704332D01*
X129423580Y-88704328D01*
X129450500Y-88568994D01*
X129450500Y-88431006D01*
X129450500Y-87111596D01*
X129470185Y-87044557D01*
X129522989Y-86998802D01*
X129592147Y-86988858D01*
X129655703Y-87017883D01*
G37*
%TD.AperFunction*%
%TA.AperFunction,Conductor*%
G36*
X125841866Y-82894405D02*
G01*
X125849666Y-82893427D01*
X125874531Y-82905329D01*
X125900673Y-82914072D01*
X125911197Y-82922880D01*
X125912688Y-82923594D01*
X125913370Y-82924698D01*
X125917489Y-82928146D01*
X126677162Y-83687819D01*
X126710647Y-83749142D01*
X126705663Y-83818834D01*
X126663791Y-83874767D01*
X126598327Y-83899184D01*
X126589481Y-83899500D01*
X126323136Y-83899500D01*
X126205746Y-83914953D01*
X126205737Y-83914956D01*
X126059660Y-83975463D01*
X125934218Y-84071718D01*
X125837963Y-84197160D01*
X125777456Y-84343237D01*
X125777455Y-84343239D01*
X125762000Y-84460638D01*
X125762000Y-84739363D01*
X125777453Y-84856753D01*
X125777457Y-84856765D01*
X125786066Y-84877550D01*
X125793533Y-84947019D01*
X125786066Y-84972450D01*
X125777457Y-84993234D01*
X125777455Y-84993239D01*
X125762000Y-85110638D01*
X125762000Y-85389363D01*
X125777453Y-85506753D01*
X125777457Y-85506765D01*
X125786066Y-85527550D01*
X125793533Y-85597019D01*
X125786066Y-85622450D01*
X125777457Y-85643234D01*
X125777455Y-85643239D01*
X125762000Y-85760638D01*
X125762000Y-86039363D01*
X125777453Y-86156753D01*
X125777457Y-86156765D01*
X125786066Y-86177550D01*
X125793533Y-86247019D01*
X125786066Y-86272450D01*
X125777457Y-86293234D01*
X125777455Y-86293239D01*
X125762000Y-86410638D01*
X125762000Y-86689363D01*
X125777453Y-86806753D01*
X125777457Y-86806765D01*
X125786066Y-86827550D01*
X125793533Y-86897019D01*
X125786066Y-86922450D01*
X125777457Y-86943234D01*
X125777455Y-86943239D01*
X125762000Y-87060638D01*
X125762000Y-87339363D01*
X125777453Y-87456753D01*
X125777456Y-87456762D01*
X125786337Y-87478203D01*
X125793804Y-87547673D01*
X125793407Y-87549773D01*
X125763693Y-87699619D01*
X125749304Y-87727164D01*
X125736733Y-87755582D01*
X125733266Y-87757868D01*
X125731344Y-87761549D01*
X125704349Y-87776942D01*
X125678409Y-87794053D01*
X125672894Y-87794879D01*
X125670649Y-87796160D01*
X125665995Y-87795913D01*
X125642061Y-87799500D01*
X124761005Y-87799500D01*
X124654053Y-87820774D01*
X124654051Y-87820774D01*
X124654051Y-87820775D01*
X124625671Y-87826420D01*
X124625667Y-87826421D01*
X124622165Y-87827118D01*
X124597975Y-87829500D01*
X123952129Y-87829500D01*
X123952120Y-87829501D01*
X123887752Y-87836420D01*
X123818992Y-87824012D01*
X123767856Y-87776400D01*
X123750500Y-87713130D01*
X123750500Y-87406363D01*
X123770185Y-87339324D01*
X123822989Y-87293569D01*
X123887758Y-87283074D01*
X123952160Y-87289999D01*
X123952172Y-87290000D01*
X124250000Y-87290000D01*
X124750000Y-87290000D01*
X125047828Y-87290000D01*
X125047844Y-87289999D01*
X125107372Y-87283598D01*
X125107379Y-87283596D01*
X125242086Y-87233354D01*
X125242093Y-87233350D01*
X125357187Y-87147190D01*
X125357190Y-87147187D01*
X125443350Y-87032093D01*
X125443354Y-87032086D01*
X125493596Y-86897379D01*
X125493598Y-86897372D01*
X125499999Y-86837844D01*
X125500000Y-86837827D01*
X125500000Y-86540000D01*
X124750000Y-86540000D01*
X124750000Y-87290000D01*
X124250000Y-87290000D01*
X124250000Y-86339728D01*
X124288060Y-86431614D01*
X124358386Y-86501940D01*
X124450272Y-86540000D01*
X124549728Y-86540000D01*
X124641614Y-86501940D01*
X124711940Y-86431614D01*
X124750000Y-86339728D01*
X124750000Y-86240272D01*
X124711940Y-86148386D01*
X124641614Y-86078060D01*
X124549728Y-86040000D01*
X124750000Y-86040000D01*
X125500000Y-86040000D01*
X125500000Y-85742172D01*
X125499999Y-85742155D01*
X125493598Y-85682627D01*
X125493596Y-85682620D01*
X125443354Y-85547913D01*
X125443350Y-85547906D01*
X125357190Y-85432812D01*
X125357187Y-85432809D01*
X125242093Y-85346649D01*
X125242086Y-85346645D01*
X125107379Y-85296403D01*
X125107372Y-85296401D01*
X125047844Y-85290000D01*
X124750000Y-85290000D01*
X124750000Y-86040000D01*
X124549728Y-86040000D01*
X124450272Y-86040000D01*
X124358386Y-86078060D01*
X124288060Y-86148386D01*
X124250000Y-86240272D01*
X124250000Y-85290000D01*
X123952155Y-85290000D01*
X123887756Y-85296925D01*
X123818996Y-85284520D01*
X123767859Y-85236910D01*
X123750500Y-85173636D01*
X123750500Y-84866868D01*
X123770185Y-84799829D01*
X123822989Y-84754074D01*
X123887756Y-84743579D01*
X123892516Y-84744090D01*
X123892517Y-84744091D01*
X123952127Y-84750500D01*
X125047872Y-84750499D01*
X125107483Y-84744091D01*
X125242331Y-84693796D01*
X125357546Y-84607546D01*
X125443796Y-84492331D01*
X125494091Y-84357483D01*
X125500500Y-84297873D01*
X125500499Y-83202128D01*
X125494091Y-83142517D01*
X125493102Y-83138332D01*
X125493281Y-83134984D01*
X125493262Y-83134804D01*
X125493291Y-83134800D01*
X125494858Y-83105554D01*
X125495450Y-83072738D01*
X125496717Y-83070841D01*
X125496840Y-83068562D01*
X125516040Y-83041934D01*
X125534279Y-83014651D01*
X125536610Y-83013409D01*
X125537706Y-83011890D01*
X125564309Y-82996108D01*
X125571571Y-82992948D01*
X125676395Y-82962494D01*
X125773301Y-82905183D01*
X125780339Y-82902122D01*
X125807690Y-82898691D01*
X125834411Y-82891912D01*
X125841866Y-82894405D01*
G37*
%TD.AperFunction*%
%TA.AperFunction,Conductor*%
G36*
X132943039Y-75270185D02*
G01*
X132988794Y-75322989D01*
X133000000Y-75374500D01*
X133000000Y-75670000D01*
X133876000Y-75670000D01*
X133919461Y-75682761D01*
X133858386Y-75708060D01*
X133788060Y-75778386D01*
X133750000Y-75870272D01*
X133750000Y-75969728D01*
X133788060Y-76061614D01*
X133858386Y-76131940D01*
X133950272Y-76170000D01*
X134049728Y-76170000D01*
X134141614Y-76131940D01*
X134211940Y-76061614D01*
X134239406Y-75995303D01*
X134250000Y-76044000D01*
X134250000Y-76920000D01*
X134547828Y-76920000D01*
X134547839Y-76919999D01*
X134612242Y-76913074D01*
X134681002Y-76925478D01*
X134732140Y-76973087D01*
X134749500Y-77036363D01*
X134749500Y-77343131D01*
X134729815Y-77410170D01*
X134677011Y-77455925D01*
X134612246Y-77466421D01*
X134605756Y-77465723D01*
X134547873Y-77459500D01*
X134547865Y-77459500D01*
X133452129Y-77459500D01*
X133452123Y-77459501D01*
X133392516Y-77465908D01*
X133257671Y-77516202D01*
X133257664Y-77516206D01*
X133142455Y-77602452D01*
X133142452Y-77602455D01*
X133056206Y-77717664D01*
X133056202Y-77717671D01*
X133005908Y-77852517D01*
X132999501Y-77912116D01*
X132999500Y-77912135D01*
X132999500Y-78559902D01*
X132979815Y-78626941D01*
X132963181Y-78647583D01*
X132269481Y-79341282D01*
X132269480Y-79341284D01*
X132233389Y-79403796D01*
X132190423Y-79478215D01*
X132149499Y-79630943D01*
X132149499Y-79630945D01*
X132149499Y-79799046D01*
X132149500Y-79799059D01*
X132149500Y-82683330D01*
X132149499Y-82683348D01*
X132149499Y-82849054D01*
X132149498Y-82849054D01*
X132163718Y-82902122D01*
X132190423Y-83001785D01*
X132190426Y-83001790D01*
X132192886Y-83006051D01*
X132209500Y-83068051D01*
X132209500Y-83249169D01*
X132209501Y-83249191D01*
X132212335Y-83285205D01*
X132257129Y-83439388D01*
X132257131Y-83439393D01*
X132338863Y-83577595D01*
X132338869Y-83577603D01*
X132449085Y-83687819D01*
X132482570Y-83749142D01*
X132477586Y-83818834D01*
X132435714Y-83874767D01*
X132370250Y-83899184D01*
X132361404Y-83899500D01*
X132048136Y-83899500D01*
X131930746Y-83914953D01*
X131930737Y-83914956D01*
X131784660Y-83975463D01*
X131659218Y-84071718D01*
X131562963Y-84197160D01*
X131502456Y-84343237D01*
X131502455Y-84343239D01*
X131487000Y-84460638D01*
X131487000Y-84739363D01*
X131502453Y-84856753D01*
X131502457Y-84856765D01*
X131511066Y-84877550D01*
X131514345Y-84908061D01*
X131519793Y-84938256D01*
X131518243Y-84944326D01*
X131518533Y-84947019D01*
X131511066Y-84972450D01*
X131511065Y-84972454D01*
X131508310Y-84979105D01*
X131464468Y-85033508D01*
X131398174Y-85055572D01*
X131330475Y-85038292D01*
X131306068Y-85019332D01*
X131136819Y-84850083D01*
X131103334Y-84788760D01*
X131100500Y-84762402D01*
X131100500Y-80582790D01*
X131120185Y-80515751D01*
X131172989Y-80469996D01*
X131181146Y-80466616D01*
X131242331Y-80443796D01*
X131357546Y-80357546D01*
X131443796Y-80242331D01*
X131494091Y-80107483D01*
X131500500Y-80047873D01*
X131500499Y-78952128D01*
X131494091Y-78892517D01*
X131443918Y-78757997D01*
X131443797Y-78757671D01*
X131443793Y-78757664D01*
X131357547Y-78642455D01*
X131357544Y-78642452D01*
X131242335Y-78556206D01*
X131242328Y-78556202D01*
X131107482Y-78505908D01*
X131107483Y-78505908D01*
X131047883Y-78499501D01*
X131047881Y-78499500D01*
X131047873Y-78499500D01*
X131047865Y-78499500D01*
X130724500Y-78499500D01*
X130657461Y-78479815D01*
X130611706Y-78427011D01*
X130600500Y-78375500D01*
X130600500Y-78084499D01*
X130620185Y-78017460D01*
X130672989Y-77971705D01*
X130724500Y-77960499D01*
X131047871Y-77960499D01*
X131047872Y-77960499D01*
X131107483Y-77954091D01*
X131242331Y-77903796D01*
X131357546Y-77817546D01*
X131443796Y-77702331D01*
X131494091Y-77567483D01*
X131500500Y-77507873D01*
X131500499Y-76467844D01*
X133000000Y-76467844D01*
X133006401Y-76527372D01*
X133006403Y-76527379D01*
X133056645Y-76662086D01*
X133056649Y-76662093D01*
X133142809Y-76777187D01*
X133142812Y-76777190D01*
X133257906Y-76863350D01*
X133257913Y-76863354D01*
X133392620Y-76913596D01*
X133392627Y-76913598D01*
X133452155Y-76919999D01*
X133452172Y-76920000D01*
X133750000Y-76920000D01*
X133750000Y-76170000D01*
X133000000Y-76170000D01*
X133000000Y-76467844D01*
X131500499Y-76467844D01*
X131500499Y-76412128D01*
X131494091Y-76352517D01*
X131443796Y-76217669D01*
X131357546Y-76102454D01*
X131279462Y-76044000D01*
X131242335Y-76016206D01*
X131242328Y-76016202D01*
X131107482Y-75965908D01*
X131107483Y-75965908D01*
X131047883Y-75959501D01*
X131047881Y-75959500D01*
X131047873Y-75959500D01*
X131047864Y-75959500D01*
X129952129Y-75959500D01*
X129952123Y-75959501D01*
X129892516Y-75965908D01*
X129757671Y-76016202D01*
X129757664Y-76016206D01*
X129642455Y-76102452D01*
X129642452Y-76102455D01*
X129556206Y-76217664D01*
X129556202Y-76217671D01*
X129505908Y-76352517D01*
X129499501Y-76412116D01*
X129499501Y-76412123D01*
X129499500Y-76412135D01*
X129499500Y-77092664D01*
X129495350Y-77108152D01*
X129496005Y-77121895D01*
X129482889Y-77154661D01*
X129469362Y-77178092D01*
X129469359Y-77178096D01*
X129440425Y-77228209D01*
X129440424Y-77228210D01*
X129440423Y-77228215D01*
X129399499Y-77380943D01*
X129399499Y-77380945D01*
X129399499Y-77549046D01*
X129399500Y-77549059D01*
X129399500Y-78106926D01*
X129379815Y-78173965D01*
X129337505Y-78214310D01*
X129330290Y-78218475D01*
X129330281Y-78218482D01*
X129218481Y-78330282D01*
X129218475Y-78330290D01*
X129139426Y-78467209D01*
X129139423Y-78467216D01*
X129098500Y-78619943D01*
X129098500Y-78645203D01*
X129078815Y-78712242D01*
X129026011Y-78757997D01*
X128956853Y-78767941D01*
X128893297Y-78738916D01*
X128875234Y-78719514D01*
X128817547Y-78642455D01*
X128817544Y-78642452D01*
X128702335Y-78556206D01*
X128702328Y-78556202D01*
X128567482Y-78505908D01*
X128567483Y-78505908D01*
X128507883Y-78499501D01*
X128507881Y-78499500D01*
X128507873Y-78499500D01*
X128507865Y-78499500D01*
X127569095Y-78499500D01*
X127502056Y-78479815D01*
X127456301Y-78427011D01*
X127446357Y-78357853D01*
X127475382Y-78294297D01*
X127481390Y-78287843D01*
X127772416Y-77996817D01*
X127833739Y-77963333D01*
X127860097Y-77960499D01*
X128507871Y-77960499D01*
X128507872Y-77960499D01*
X128567483Y-77954091D01*
X128702331Y-77903796D01*
X128817546Y-77817546D01*
X128903796Y-77702331D01*
X128954091Y-77567483D01*
X128960500Y-77507873D01*
X128960499Y-76412128D01*
X128954091Y-76352517D01*
X128903796Y-76217669D01*
X128903795Y-76217668D01*
X128903793Y-76217664D01*
X128817547Y-76102455D01*
X128817544Y-76102452D01*
X128702335Y-76016206D01*
X128702328Y-76016202D01*
X128567482Y-75965908D01*
X128567483Y-75965908D01*
X128507883Y-75959501D01*
X128507881Y-75959500D01*
X128507873Y-75959500D01*
X128507864Y-75959500D01*
X127412129Y-75959500D01*
X127412123Y-75959501D01*
X127352516Y-75965908D01*
X127217671Y-76016202D01*
X127217664Y-76016206D01*
X127102455Y-76102452D01*
X127102452Y-76102455D01*
X127016206Y-76217664D01*
X127016202Y-76217671D01*
X126965908Y-76352517D01*
X126959501Y-76412116D01*
X126959501Y-76412123D01*
X126959500Y-76412135D01*
X126959500Y-77059902D01*
X126939815Y-77126941D01*
X126923185Y-77147578D01*
X126843949Y-77226815D01*
X126765113Y-77305651D01*
X126703790Y-77339135D01*
X126634098Y-77334151D01*
X126578165Y-77292279D01*
X126553748Y-77226815D01*
X126562870Y-77170518D01*
X126613710Y-77047781D01*
X126671404Y-76832463D01*
X126700500Y-76611457D01*
X126700500Y-76388543D01*
X126671404Y-76167537D01*
X126613710Y-75952219D01*
X126600364Y-75920000D01*
X126528406Y-75746277D01*
X126528405Y-75746274D01*
X126416948Y-75553226D01*
X126337730Y-75449986D01*
X126312536Y-75384817D01*
X126326575Y-75316372D01*
X126375389Y-75266382D01*
X126436106Y-75250500D01*
X132876000Y-75250500D01*
X132943039Y-75270185D01*
G37*
%TD.AperFunction*%
%TA.AperFunction,Conductor*%
G36*
X123949986Y-77837730D02*
G01*
X123969257Y-77852517D01*
X124053226Y-77916948D01*
X124246274Y-78028405D01*
X124452219Y-78113710D01*
X124667537Y-78171404D01*
X124888543Y-78200500D01*
X124888550Y-78200500D01*
X125111450Y-78200500D01*
X125111457Y-78200500D01*
X125332463Y-78171404D01*
X125547781Y-78113710D01*
X125753726Y-78028405D01*
X125946774Y-77916948D01*
X125970851Y-77898472D01*
X126036016Y-77873278D01*
X126104461Y-77887315D01*
X126154453Y-77936127D01*
X126170118Y-78004218D01*
X126166112Y-78028940D01*
X126149499Y-78090940D01*
X126149499Y-78259046D01*
X126149500Y-78259059D01*
X126149500Y-80654964D01*
X126129815Y-80722003D01*
X126077011Y-80767758D01*
X126007853Y-80777702D01*
X125944297Y-80748677D01*
X125935778Y-80739684D01*
X125935634Y-80739829D01*
X125815692Y-80619887D01*
X125815684Y-80619881D01*
X125680074Y-80539682D01*
X125676395Y-80537506D01*
X125676394Y-80537505D01*
X125676393Y-80537505D01*
X125676390Y-80537504D01*
X125520997Y-80492357D01*
X125520991Y-80492356D01*
X125484697Y-80489500D01*
X125484690Y-80489500D01*
X125015310Y-80489500D01*
X125015302Y-80489500D01*
X124979008Y-80492356D01*
X124979002Y-80492357D01*
X124823602Y-80537506D01*
X124823400Y-80537594D01*
X124823227Y-80537615D01*
X124816114Y-80539682D01*
X124815780Y-80538533D01*
X124754056Y-80546144D01*
X124711049Y-80530519D01*
X124689193Y-80517594D01*
X124689188Y-80517592D01*
X124535130Y-80472834D01*
X124500000Y-80470068D01*
X124500000Y-80819053D01*
X124489803Y-80868295D01*
X124487506Y-80873603D01*
X124442357Y-81029002D01*
X124442356Y-81029008D01*
X124439500Y-81065302D01*
X124439500Y-81116000D01*
X124436949Y-81124685D01*
X124438238Y-81133647D01*
X124427259Y-81157687D01*
X124419815Y-81183039D01*
X124412974Y-81188966D01*
X124409213Y-81197203D01*
X124386978Y-81211492D01*
X124367011Y-81228794D01*
X124356496Y-81231081D01*
X124350435Y-81234977D01*
X124315500Y-81240000D01*
X124124000Y-81240000D01*
X124056961Y-81220315D01*
X124011206Y-81167511D01*
X124000000Y-81116000D01*
X124000000Y-80470068D01*
X123999999Y-80470068D01*
X123964869Y-80472834D01*
X123964868Y-80472834D01*
X123909095Y-80489038D01*
X123839225Y-80488839D01*
X123780555Y-80450897D01*
X123751712Y-80387258D01*
X123750500Y-80369962D01*
X123750500Y-77936106D01*
X123770185Y-77869067D01*
X123822989Y-77823312D01*
X123892147Y-77813368D01*
X123949986Y-77837730D01*
G37*
%TD.AperFunction*%
%TD*%
M02*
