%TF.GenerationSoftware,KiCad,Pcbnew,9.0.7-9.0.7~ubuntu24.04.1*%
%TF.CreationDate,2026-02-04T00:02:02-05:00*%
%TF.ProjectId,videoOSD,76696465-6f4f-4534-942e-6b696361645f,rev?*%
%TF.SameCoordinates,Original*%
%TF.FileFunction,Legend,Top*%
%TF.FilePolarity,Positive*%
%FSLAX46Y46*%
G04 Gerber Fmt 4.6, Leading zero omitted, Abs format (unit mm)*
G04 Created by KiCad (PCBNEW 9.0.7-9.0.7~ubuntu24.04.1) date 2026-02-04 00:02:02*
%MOMM*%
%LPD*%
G01*
G04 APERTURE LIST*
%ADD10C,0.200000*%
%ADD11C,0.150000*%
%ADD12C,0.120000*%
G04 APERTURE END LIST*
D10*
X126382780Y-96060149D02*
X126382780Y-96250625D01*
X126382780Y-96250625D02*
X126335161Y-96345863D01*
X126335161Y-96345863D02*
X126239923Y-96441101D01*
X126239923Y-96441101D02*
X126049447Y-96488720D01*
X126049447Y-96488720D02*
X125716114Y-96488720D01*
X125716114Y-96488720D02*
X125525638Y-96441101D01*
X125525638Y-96441101D02*
X125430400Y-96345863D01*
X125430400Y-96345863D02*
X125382780Y-96250625D01*
X125382780Y-96250625D02*
X125382780Y-96060149D01*
X125382780Y-96060149D02*
X125430400Y-95964911D01*
X125430400Y-95964911D02*
X125525638Y-95869673D01*
X125525638Y-95869673D02*
X125716114Y-95822054D01*
X125716114Y-95822054D02*
X126049447Y-95822054D01*
X126049447Y-95822054D02*
X126239923Y-95869673D01*
X126239923Y-95869673D02*
X126335161Y-95964911D01*
X126335161Y-95964911D02*
X126382780Y-96060149D01*
X126382780Y-96917292D02*
X125573257Y-96917292D01*
X125573257Y-96917292D02*
X125478019Y-96964911D01*
X125478019Y-96964911D02*
X125430400Y-97012530D01*
X125430400Y-97012530D02*
X125382780Y-97107768D01*
X125382780Y-97107768D02*
X125382780Y-97298244D01*
X125382780Y-97298244D02*
X125430400Y-97393482D01*
X125430400Y-97393482D02*
X125478019Y-97441101D01*
X125478019Y-97441101D02*
X125573257Y-97488720D01*
X125573257Y-97488720D02*
X126382780Y-97488720D01*
X126382780Y-97822054D02*
X126382780Y-98393482D01*
X125382780Y-98107768D02*
X126382780Y-98107768D01*
X125632780Y-82869673D02*
X126632780Y-82869673D01*
X125632780Y-83345863D02*
X126632780Y-83345863D01*
X126632780Y-83345863D02*
X125632780Y-83917291D01*
X125632780Y-83917291D02*
X126632780Y-83917291D01*
X126619673Y-81367219D02*
X126619673Y-80367219D01*
X126619673Y-80367219D02*
X127000625Y-80367219D01*
X127000625Y-80367219D02*
X127095863Y-80414838D01*
X127095863Y-80414838D02*
X127143482Y-80462457D01*
X127143482Y-80462457D02*
X127191101Y-80557695D01*
X127191101Y-80557695D02*
X127191101Y-80700552D01*
X127191101Y-80700552D02*
X127143482Y-80795790D01*
X127143482Y-80795790D02*
X127095863Y-80843409D01*
X127095863Y-80843409D02*
X127000625Y-80891028D01*
X127000625Y-80891028D02*
X126619673Y-80891028D01*
X128191101Y-81367219D02*
X127857768Y-80891028D01*
X127619673Y-81367219D02*
X127619673Y-80367219D01*
X127619673Y-80367219D02*
X128000625Y-80367219D01*
X128000625Y-80367219D02*
X128095863Y-80414838D01*
X128095863Y-80414838D02*
X128143482Y-80462457D01*
X128143482Y-80462457D02*
X128191101Y-80557695D01*
X128191101Y-80557695D02*
X128191101Y-80700552D01*
X128191101Y-80700552D02*
X128143482Y-80795790D01*
X128143482Y-80795790D02*
X128095863Y-80843409D01*
X128095863Y-80843409D02*
X128000625Y-80891028D01*
X128000625Y-80891028D02*
X127619673Y-80891028D01*
X128810149Y-80367219D02*
X129000625Y-80367219D01*
X129000625Y-80367219D02*
X129095863Y-80414838D01*
X129095863Y-80414838D02*
X129191101Y-80510076D01*
X129191101Y-80510076D02*
X129238720Y-80700552D01*
X129238720Y-80700552D02*
X129238720Y-81033885D01*
X129238720Y-81033885D02*
X129191101Y-81224361D01*
X129191101Y-81224361D02*
X129095863Y-81319600D01*
X129095863Y-81319600D02*
X129000625Y-81367219D01*
X129000625Y-81367219D02*
X128810149Y-81367219D01*
X128810149Y-81367219D02*
X128714911Y-81319600D01*
X128714911Y-81319600D02*
X128619673Y-81224361D01*
X128619673Y-81224361D02*
X128572054Y-81033885D01*
X128572054Y-81033885D02*
X128572054Y-80700552D01*
X128572054Y-80700552D02*
X128619673Y-80510076D01*
X128619673Y-80510076D02*
X128714911Y-80414838D01*
X128714911Y-80414838D02*
X128810149Y-80367219D01*
X130191101Y-80414838D02*
X130095863Y-80367219D01*
X130095863Y-80367219D02*
X129953006Y-80367219D01*
X129953006Y-80367219D02*
X129810149Y-80414838D01*
X129810149Y-80414838D02*
X129714911Y-80510076D01*
X129714911Y-80510076D02*
X129667292Y-80605314D01*
X129667292Y-80605314D02*
X129619673Y-80795790D01*
X129619673Y-80795790D02*
X129619673Y-80938647D01*
X129619673Y-80938647D02*
X129667292Y-81129123D01*
X129667292Y-81129123D02*
X129714911Y-81224361D01*
X129714911Y-81224361D02*
X129810149Y-81319600D01*
X129810149Y-81319600D02*
X129953006Y-81367219D01*
X129953006Y-81367219D02*
X130048244Y-81367219D01*
X130048244Y-81367219D02*
X130191101Y-81319600D01*
X130191101Y-81319600D02*
X130238720Y-81271980D01*
X130238720Y-81271980D02*
X130238720Y-80938647D01*
X130238720Y-80938647D02*
X130048244Y-80938647D01*
X132819600Y-81427945D02*
X132867219Y-81285088D01*
X132867219Y-81285088D02*
X132867219Y-81046993D01*
X132867219Y-81046993D02*
X132819600Y-80951755D01*
X132819600Y-80951755D02*
X132771980Y-80904136D01*
X132771980Y-80904136D02*
X132676742Y-80856517D01*
X132676742Y-80856517D02*
X132581504Y-80856517D01*
X132581504Y-80856517D02*
X132486266Y-80904136D01*
X132486266Y-80904136D02*
X132438647Y-80951755D01*
X132438647Y-80951755D02*
X132391028Y-81046993D01*
X132391028Y-81046993D02*
X132343409Y-81237469D01*
X132343409Y-81237469D02*
X132295790Y-81332707D01*
X132295790Y-81332707D02*
X132248171Y-81380326D01*
X132248171Y-81380326D02*
X132152933Y-81427945D01*
X132152933Y-81427945D02*
X132057695Y-81427945D01*
X132057695Y-81427945D02*
X131962457Y-81380326D01*
X131962457Y-81380326D02*
X131914838Y-81332707D01*
X131914838Y-81332707D02*
X131867219Y-81237469D01*
X131867219Y-81237469D02*
X131867219Y-80999374D01*
X131867219Y-80999374D02*
X131914838Y-80856517D01*
X132867219Y-80427945D02*
X131867219Y-80427945D01*
X131914838Y-79427946D02*
X131867219Y-79523184D01*
X131867219Y-79523184D02*
X131867219Y-79666041D01*
X131867219Y-79666041D02*
X131914838Y-79808898D01*
X131914838Y-79808898D02*
X132010076Y-79904136D01*
X132010076Y-79904136D02*
X132105314Y-79951755D01*
X132105314Y-79951755D02*
X132295790Y-79999374D01*
X132295790Y-79999374D02*
X132438647Y-79999374D01*
X132438647Y-79999374D02*
X132629123Y-79951755D01*
X132629123Y-79951755D02*
X132724361Y-79904136D01*
X132724361Y-79904136D02*
X132819600Y-79808898D01*
X132819600Y-79808898D02*
X132867219Y-79666041D01*
X132867219Y-79666041D02*
X132867219Y-79570803D01*
X132867219Y-79570803D02*
X132819600Y-79427946D01*
X132819600Y-79427946D02*
X132771980Y-79380327D01*
X132771980Y-79380327D02*
X132438647Y-79380327D01*
X132438647Y-79380327D02*
X132438647Y-79570803D01*
X132867219Y-78951755D02*
X131867219Y-78951755D01*
X131867219Y-78951755D02*
X132867219Y-78380327D01*
X132867219Y-78380327D02*
X131867219Y-78380327D01*
X132581504Y-77951755D02*
X132581504Y-77475565D01*
X132867219Y-78046993D02*
X131867219Y-77713660D01*
X131867219Y-77713660D02*
X132867219Y-77380327D01*
X132867219Y-76570803D02*
X132867219Y-77046993D01*
X132867219Y-77046993D02*
X131867219Y-77046993D01*
X132771980Y-76094612D02*
X132819600Y-76046993D01*
X132819600Y-76046993D02*
X132867219Y-76094612D01*
X132867219Y-76094612D02*
X132819600Y-76142231D01*
X132819600Y-76142231D02*
X132771980Y-76094612D01*
X132771980Y-76094612D02*
X132867219Y-76094612D01*
X131914838Y-76285088D02*
X131867219Y-76189850D01*
X131867219Y-76189850D02*
X131867219Y-75951755D01*
X131867219Y-75951755D02*
X131914838Y-75856517D01*
X131914838Y-75856517D02*
X132010076Y-75808898D01*
X132010076Y-75808898D02*
X132105314Y-75808898D01*
X132105314Y-75808898D02*
X132200552Y-75856517D01*
X132200552Y-75856517D02*
X132248171Y-75904136D01*
X132248171Y-75904136D02*
X132295790Y-75999374D01*
X132295790Y-75999374D02*
X132343409Y-76046993D01*
X132343409Y-76046993D02*
X132438647Y-76094612D01*
X132438647Y-76094612D02*
X132486266Y-76094612D01*
D11*
X128583333Y-99704819D02*
X128250000Y-99228628D01*
X128011905Y-99704819D02*
X128011905Y-98704819D01*
X128011905Y-98704819D02*
X128392857Y-98704819D01*
X128392857Y-98704819D02*
X128488095Y-98752438D01*
X128488095Y-98752438D02*
X128535714Y-98800057D01*
X128535714Y-98800057D02*
X128583333Y-98895295D01*
X128583333Y-98895295D02*
X128583333Y-99038152D01*
X128583333Y-99038152D02*
X128535714Y-99133390D01*
X128535714Y-99133390D02*
X128488095Y-99181009D01*
X128488095Y-99181009D02*
X128392857Y-99228628D01*
X128392857Y-99228628D02*
X128011905Y-99228628D01*
X128964286Y-98800057D02*
X129011905Y-98752438D01*
X129011905Y-98752438D02*
X129107143Y-98704819D01*
X129107143Y-98704819D02*
X129345238Y-98704819D01*
X129345238Y-98704819D02*
X129440476Y-98752438D01*
X129440476Y-98752438D02*
X129488095Y-98800057D01*
X129488095Y-98800057D02*
X129535714Y-98895295D01*
X129535714Y-98895295D02*
X129535714Y-98990533D01*
X129535714Y-98990533D02*
X129488095Y-99133390D01*
X129488095Y-99133390D02*
X128916667Y-99704819D01*
X128916667Y-99704819D02*
X129535714Y-99704819D01*
X131083333Y-83454819D02*
X130750000Y-82978628D01*
X130511905Y-83454819D02*
X130511905Y-82454819D01*
X130511905Y-82454819D02*
X130892857Y-82454819D01*
X130892857Y-82454819D02*
X130988095Y-82502438D01*
X130988095Y-82502438D02*
X131035714Y-82550057D01*
X131035714Y-82550057D02*
X131083333Y-82645295D01*
X131083333Y-82645295D02*
X131083333Y-82788152D01*
X131083333Y-82788152D02*
X131035714Y-82883390D01*
X131035714Y-82883390D02*
X130988095Y-82931009D01*
X130988095Y-82931009D02*
X130892857Y-82978628D01*
X130892857Y-82978628D02*
X130511905Y-82978628D01*
X131416667Y-82454819D02*
X132035714Y-82454819D01*
X132035714Y-82454819D02*
X131702381Y-82835771D01*
X131702381Y-82835771D02*
X131845238Y-82835771D01*
X131845238Y-82835771D02*
X131940476Y-82883390D01*
X131940476Y-82883390D02*
X131988095Y-82931009D01*
X131988095Y-82931009D02*
X132035714Y-83026247D01*
X132035714Y-83026247D02*
X132035714Y-83264342D01*
X132035714Y-83264342D02*
X131988095Y-83359580D01*
X131988095Y-83359580D02*
X131940476Y-83407200D01*
X131940476Y-83407200D02*
X131845238Y-83454819D01*
X131845238Y-83454819D02*
X131559524Y-83454819D01*
X131559524Y-83454819D02*
X131464286Y-83407200D01*
X131464286Y-83407200D02*
X131416667Y-83359580D01*
X127609580Y-94916666D02*
X127657200Y-94964285D01*
X127657200Y-94964285D02*
X127704819Y-95107142D01*
X127704819Y-95107142D02*
X127704819Y-95202380D01*
X127704819Y-95202380D02*
X127657200Y-95345237D01*
X127657200Y-95345237D02*
X127561961Y-95440475D01*
X127561961Y-95440475D02*
X127466723Y-95488094D01*
X127466723Y-95488094D02*
X127276247Y-95535713D01*
X127276247Y-95535713D02*
X127133390Y-95535713D01*
X127133390Y-95535713D02*
X126942914Y-95488094D01*
X126942914Y-95488094D02*
X126847676Y-95440475D01*
X126847676Y-95440475D02*
X126752438Y-95345237D01*
X126752438Y-95345237D02*
X126704819Y-95202380D01*
X126704819Y-95202380D02*
X126704819Y-95107142D01*
X126704819Y-95107142D02*
X126752438Y-94964285D01*
X126752438Y-94964285D02*
X126800057Y-94916666D01*
X126704819Y-94011904D02*
X126704819Y-94488094D01*
X126704819Y-94488094D02*
X127181009Y-94535713D01*
X127181009Y-94535713D02*
X127133390Y-94488094D01*
X127133390Y-94488094D02*
X127085771Y-94392856D01*
X127085771Y-94392856D02*
X127085771Y-94154761D01*
X127085771Y-94154761D02*
X127133390Y-94059523D01*
X127133390Y-94059523D02*
X127181009Y-94011904D01*
X127181009Y-94011904D02*
X127276247Y-93964285D01*
X127276247Y-93964285D02*
X127514342Y-93964285D01*
X127514342Y-93964285D02*
X127609580Y-94011904D01*
X127609580Y-94011904D02*
X127657200Y-94059523D01*
X127657200Y-94059523D02*
X127704819Y-94154761D01*
X127704819Y-94154761D02*
X127704819Y-94392856D01*
X127704819Y-94392856D02*
X127657200Y-94488094D01*
X127657200Y-94488094D02*
X127609580Y-94535713D01*
X124454819Y-79906666D02*
X123978628Y-80239999D01*
X124454819Y-80478094D02*
X123454819Y-80478094D01*
X123454819Y-80478094D02*
X123454819Y-80097142D01*
X123454819Y-80097142D02*
X123502438Y-80001904D01*
X123502438Y-80001904D02*
X123550057Y-79954285D01*
X123550057Y-79954285D02*
X123645295Y-79906666D01*
X123645295Y-79906666D02*
X123788152Y-79906666D01*
X123788152Y-79906666D02*
X123883390Y-79954285D01*
X123883390Y-79954285D02*
X123931009Y-80001904D01*
X123931009Y-80001904D02*
X123978628Y-80097142D01*
X123978628Y-80097142D02*
X123978628Y-80478094D01*
X124454819Y-78954285D02*
X124454819Y-79525713D01*
X124454819Y-79239999D02*
X123454819Y-79239999D01*
X123454819Y-79239999D02*
X123597676Y-79335237D01*
X123597676Y-79335237D02*
X123692914Y-79430475D01*
X123692914Y-79430475D02*
X123740533Y-79525713D01*
X125609580Y-79896666D02*
X125657200Y-79944285D01*
X125657200Y-79944285D02*
X125704819Y-80087142D01*
X125704819Y-80087142D02*
X125704819Y-80182380D01*
X125704819Y-80182380D02*
X125657200Y-80325237D01*
X125657200Y-80325237D02*
X125561961Y-80420475D01*
X125561961Y-80420475D02*
X125466723Y-80468094D01*
X125466723Y-80468094D02*
X125276247Y-80515713D01*
X125276247Y-80515713D02*
X125133390Y-80515713D01*
X125133390Y-80515713D02*
X124942914Y-80468094D01*
X124942914Y-80468094D02*
X124847676Y-80420475D01*
X124847676Y-80420475D02*
X124752438Y-80325237D01*
X124752438Y-80325237D02*
X124704819Y-80182380D01*
X124704819Y-80182380D02*
X124704819Y-80087142D01*
X124704819Y-80087142D02*
X124752438Y-79944285D01*
X124752438Y-79944285D02*
X124800057Y-79896666D01*
X125038152Y-79039523D02*
X125704819Y-79039523D01*
X124657200Y-79277618D02*
X125371485Y-79515713D01*
X125371485Y-79515713D02*
X125371485Y-78896666D01*
X130738095Y-94079819D02*
X130738095Y-94889342D01*
X130738095Y-94889342D02*
X130785714Y-94984580D01*
X130785714Y-94984580D02*
X130833333Y-95032200D01*
X130833333Y-95032200D02*
X130928571Y-95079819D01*
X130928571Y-95079819D02*
X131119047Y-95079819D01*
X131119047Y-95079819D02*
X131214285Y-95032200D01*
X131214285Y-95032200D02*
X131261904Y-94984580D01*
X131261904Y-94984580D02*
X131309523Y-94889342D01*
X131309523Y-94889342D02*
X131309523Y-94079819D01*
X132309523Y-95079819D02*
X131738095Y-95079819D01*
X132023809Y-95079819D02*
X132023809Y-94079819D01*
X132023809Y-94079819D02*
X131928571Y-94222676D01*
X131928571Y-94222676D02*
X131833333Y-94317914D01*
X131833333Y-94317914D02*
X131738095Y-94365533D01*
X131773809Y-99428628D02*
X131773809Y-99904819D01*
X131440476Y-98904819D02*
X131773809Y-99428628D01*
X131773809Y-99428628D02*
X132107142Y-98904819D01*
X132964285Y-99904819D02*
X132392857Y-99904819D01*
X132678571Y-99904819D02*
X132678571Y-98904819D01*
X132678571Y-98904819D02*
X132583333Y-99047676D01*
X132583333Y-99047676D02*
X132488095Y-99142914D01*
X132488095Y-99142914D02*
X132392857Y-99190533D01*
X134859580Y-93416666D02*
X134907200Y-93464285D01*
X134907200Y-93464285D02*
X134954819Y-93607142D01*
X134954819Y-93607142D02*
X134954819Y-93702380D01*
X134954819Y-93702380D02*
X134907200Y-93845237D01*
X134907200Y-93845237D02*
X134811961Y-93940475D01*
X134811961Y-93940475D02*
X134716723Y-93988094D01*
X134716723Y-93988094D02*
X134526247Y-94035713D01*
X134526247Y-94035713D02*
X134383390Y-94035713D01*
X134383390Y-94035713D02*
X134192914Y-93988094D01*
X134192914Y-93988094D02*
X134097676Y-93940475D01*
X134097676Y-93940475D02*
X134002438Y-93845237D01*
X134002438Y-93845237D02*
X133954819Y-93702380D01*
X133954819Y-93702380D02*
X133954819Y-93607142D01*
X133954819Y-93607142D02*
X134002438Y-93464285D01*
X134002438Y-93464285D02*
X134050057Y-93416666D01*
X133954819Y-93083332D02*
X133954819Y-92464285D01*
X133954819Y-92464285D02*
X134335771Y-92797618D01*
X134335771Y-92797618D02*
X134335771Y-92654761D01*
X134335771Y-92654761D02*
X134383390Y-92559523D01*
X134383390Y-92559523D02*
X134431009Y-92511904D01*
X134431009Y-92511904D02*
X134526247Y-92464285D01*
X134526247Y-92464285D02*
X134764342Y-92464285D01*
X134764342Y-92464285D02*
X134859580Y-92511904D01*
X134859580Y-92511904D02*
X134907200Y-92559523D01*
X134907200Y-92559523D02*
X134954819Y-92654761D01*
X134954819Y-92654761D02*
X134954819Y-92940475D01*
X134954819Y-92940475D02*
X134907200Y-93035713D01*
X134907200Y-93035713D02*
X134859580Y-93083332D01*
X129359580Y-94916666D02*
X129407200Y-94964285D01*
X129407200Y-94964285D02*
X129454819Y-95107142D01*
X129454819Y-95107142D02*
X129454819Y-95202380D01*
X129454819Y-95202380D02*
X129407200Y-95345237D01*
X129407200Y-95345237D02*
X129311961Y-95440475D01*
X129311961Y-95440475D02*
X129216723Y-95488094D01*
X129216723Y-95488094D02*
X129026247Y-95535713D01*
X129026247Y-95535713D02*
X128883390Y-95535713D01*
X128883390Y-95535713D02*
X128692914Y-95488094D01*
X128692914Y-95488094D02*
X128597676Y-95440475D01*
X128597676Y-95440475D02*
X128502438Y-95345237D01*
X128502438Y-95345237D02*
X128454819Y-95202380D01*
X128454819Y-95202380D02*
X128454819Y-95107142D01*
X128454819Y-95107142D02*
X128502438Y-94964285D01*
X128502438Y-94964285D02*
X128550057Y-94916666D01*
X128454819Y-94059523D02*
X128454819Y-94249999D01*
X128454819Y-94249999D02*
X128502438Y-94345237D01*
X128502438Y-94345237D02*
X128550057Y-94392856D01*
X128550057Y-94392856D02*
X128692914Y-94488094D01*
X128692914Y-94488094D02*
X128883390Y-94535713D01*
X128883390Y-94535713D02*
X129264342Y-94535713D01*
X129264342Y-94535713D02*
X129359580Y-94488094D01*
X129359580Y-94488094D02*
X129407200Y-94440475D01*
X129407200Y-94440475D02*
X129454819Y-94345237D01*
X129454819Y-94345237D02*
X129454819Y-94154761D01*
X129454819Y-94154761D02*
X129407200Y-94059523D01*
X129407200Y-94059523D02*
X129359580Y-94011904D01*
X129359580Y-94011904D02*
X129264342Y-93964285D01*
X129264342Y-93964285D02*
X129026247Y-93964285D01*
X129026247Y-93964285D02*
X128931009Y-94011904D01*
X128931009Y-94011904D02*
X128883390Y-94059523D01*
X128883390Y-94059523D02*
X128835771Y-94154761D01*
X128835771Y-94154761D02*
X128835771Y-94345237D01*
X128835771Y-94345237D02*
X128883390Y-94440475D01*
X128883390Y-94440475D02*
X128931009Y-94488094D01*
X128931009Y-94488094D02*
X129026247Y-94535713D01*
D12*
%TO.C,TP1*%
X123800000Y-93300000D02*
X125200000Y-93300000D01*
X123800000Y-94700000D02*
X123800000Y-93300000D01*
X125200000Y-93300000D02*
X125200000Y-94700000D01*
X125200000Y-94700000D02*
X123800000Y-94700000D01*
%TO.C,R2*%
X126903641Y-98870000D02*
X126596359Y-98870000D01*
X126903641Y-99630000D02*
X126596359Y-99630000D01*
%TO.C,R3*%
X133643641Y-82620000D02*
X133336359Y-82620000D01*
X133643641Y-83380000D02*
X133336359Y-83380000D01*
%TO.C,TP9*%
X133300000Y-75220000D02*
X134700000Y-75220000D01*
X133300000Y-76620000D02*
X133300000Y-75220000D01*
X134700000Y-75220000D02*
X134700000Y-76620000D01*
X134700000Y-76620000D02*
X133300000Y-76620000D01*
%TO.C,TP4*%
X123800000Y-88130000D02*
X125200000Y-88130000D01*
X123800000Y-89530000D02*
X123800000Y-88130000D01*
X125200000Y-88130000D02*
X125200000Y-89530000D01*
X125200000Y-89530000D02*
X123800000Y-89530000D01*
%TO.C,C5*%
X126740000Y-96834420D02*
X126740000Y-97115580D01*
X127760000Y-96834420D02*
X127760000Y-97115580D01*
%TO.C,TP10*%
X127260000Y-76260000D02*
X128660000Y-76260000D01*
X127260000Y-77660000D02*
X127260000Y-76260000D01*
X128660000Y-76260000D02*
X128660000Y-77660000D01*
X128660000Y-77660000D02*
X127260000Y-77660000D01*
%TO.C,TP13*%
X129800000Y-78800000D02*
X131200000Y-78800000D01*
X129800000Y-80200000D02*
X129800000Y-78800000D01*
X131200000Y-78800000D02*
X131200000Y-80200000D01*
X131200000Y-80200000D02*
X129800000Y-80200000D01*
%TO.C,R1*%
X123870000Y-81903641D02*
X123870000Y-81596359D01*
X124630000Y-81903641D02*
X124630000Y-81596359D01*
%TO.C,C1*%
X125087836Y-90140000D02*
X124872164Y-90140000D01*
X125087836Y-90860000D02*
X124872164Y-90860000D01*
%TO.C,C2*%
X125127836Y-91140000D02*
X124912164Y-91140000D01*
X125127836Y-91860000D02*
X124912164Y-91860000D01*
%TO.C,TP7*%
X133300000Y-80300000D02*
X134700000Y-80300000D01*
X133300000Y-81700000D02*
X133300000Y-80300000D01*
X134700000Y-80300000D02*
X134700000Y-81700000D01*
X134700000Y-81700000D02*
X133300000Y-81700000D01*
%TO.C,C4*%
X124890000Y-81642164D02*
X124890000Y-81857836D01*
X125610000Y-81642164D02*
X125610000Y-81857836D01*
%TO.C,U1*%
X127552500Y-83865000D02*
X132172500Y-83865000D01*
X127552500Y-84140000D02*
X127552500Y-83865000D01*
X127552500Y-93785000D02*
X127552500Y-93510000D01*
X132172500Y-83865000D02*
X132172500Y-84140000D01*
X132172500Y-93510000D02*
X132172500Y-93785000D01*
X132172500Y-93785000D02*
X127552500Y-93785000D01*
X133152500Y-93985000D02*
X132472500Y-93985000D01*
X132812500Y-93515000D01*
X133152500Y-93985000D01*
G36*
X133152500Y-93985000D02*
G01*
X132472500Y-93985000D01*
X132812500Y-93515000D01*
X133152500Y-93985000D01*
G37*
%TO.C,TP8*%
X133300000Y-77760000D02*
X134700000Y-77760000D01*
X133300000Y-79160000D02*
X133300000Y-77760000D01*
X134700000Y-77760000D02*
X134700000Y-79160000D01*
X134700000Y-79160000D02*
X133300000Y-79160000D01*
%TO.C,Y1*%
X134310000Y-95290000D02*
X130190000Y-95290000D01*
X134310000Y-98710000D02*
X134310000Y-95290000D01*
%TO.C,TP12*%
X129800000Y-76260000D02*
X131200000Y-76260000D01*
X129800000Y-77660000D02*
X129800000Y-76260000D01*
X131200000Y-76260000D02*
X131200000Y-77660000D01*
X131200000Y-77660000D02*
X129800000Y-77660000D01*
%TO.C,TP2*%
X123800000Y-95840000D02*
X125200000Y-95840000D01*
X123800000Y-97240000D02*
X123800000Y-95840000D01*
X125200000Y-95840000D02*
X125200000Y-97240000D01*
X125200000Y-97240000D02*
X123800000Y-97240000D01*
%TO.C,TP3*%
X123800000Y-98380000D02*
X125200000Y-98380000D01*
X123800000Y-99780000D02*
X123800000Y-98380000D01*
X125200000Y-98380000D02*
X125200000Y-99780000D01*
X125200000Y-99780000D02*
X123800000Y-99780000D01*
%TO.C,C3*%
X133890000Y-91587836D02*
X133890000Y-91372164D01*
X134610000Y-91587836D02*
X134610000Y-91372164D01*
%TO.C,C6*%
X128490000Y-96834420D02*
X128490000Y-97115580D01*
X129510000Y-96834420D02*
X129510000Y-97115580D01*
%TO.C,TP11*%
X127260000Y-78800000D02*
X128660000Y-78800000D01*
X127260000Y-80200000D02*
X127260000Y-78800000D01*
X128660000Y-78800000D02*
X128660000Y-80200000D01*
X128660000Y-80200000D02*
X127260000Y-80200000D01*
%TO.C,TP5*%
X123800000Y-85590000D02*
X125200000Y-85590000D01*
X123800000Y-86990000D02*
X123800000Y-85590000D01*
X125200000Y-85590000D02*
X125200000Y-86990000D01*
X125200000Y-86990000D02*
X123800000Y-86990000D01*
%TO.C,TP6*%
X123800000Y-83050000D02*
X125200000Y-83050000D01*
X123800000Y-84450000D02*
X123800000Y-83050000D01*
X125200000Y-83050000D02*
X125200000Y-84450000D01*
X125200000Y-84450000D02*
X123800000Y-84450000D01*
%TD*%
M02*
