%TF.GenerationSoftware,KiCad,Pcbnew,9.0.7-9.0.7~ubuntu24.04.1*%
%TF.CreationDate,2026-02-04T00:02:02-05:00*%
%TF.ProjectId,videoOSD,76696465-6f4f-4534-942e-6b696361645f,rev?*%
%TF.SameCoordinates,Original*%
%TF.FileFunction,Copper,L2,Bot*%
%TF.FilePolarity,Positive*%
%FSLAX46Y46*%
G04 Gerber Fmt 4.6, Leading zero omitted, Abs format (unit mm)*
G04 Created by KiCad (PCBNEW 9.0.7-9.0.7~ubuntu24.04.1) date 2026-02-04 00:02:02*
%MOMM*%
%LPD*%
G01*
G04 APERTURE LIST*
%TA.AperFunction,ComponentPad*%
%ADD10R,1.000000X1.000000*%
%TD*%
%TA.AperFunction,ViaPad*%
%ADD11C,0.600000*%
%TD*%
%TA.AperFunction,Conductor*%
%ADD12C,0.400000*%
%TD*%
G04 APERTURE END LIST*
D10*
%TO.P,TP1,1,1*%
%TO.N,+5V*%
X124500000Y-94000000D03*
%TD*%
%TO.P,TP9,1,1*%
%TO.N,GND*%
X134000000Y-75920000D03*
%TD*%
%TO.P,TP4,1,1*%
%TO.N,+5V*%
X124500000Y-88830000D03*
%TD*%
%TO.P,TP7,1,1*%
%TO.N,Net-(R3-Pad1)*%
X134000000Y-81000000D03*
%TD*%
%TO.P,TP8,1,1*%
%TO.N,Net-(U1-LOS)*%
X134000000Y-78460000D03*
%TD*%
%TO.P,TP2,1,1*%
%TO.N,GND*%
X124500000Y-96540000D03*
%TD*%
%TO.P,TP3,1,1*%
%TO.N,Net-(R2-Pad2)*%
X124500000Y-99080000D03*
%TD*%
%TO.P,TP5,1,1*%
%TO.N,GND*%
X124500000Y-86290000D03*
%TD*%
%TO.P,TP6,1,1*%
%TO.N,Net-(C4-Pad2)*%
X124500000Y-83750000D03*
%TD*%
D11*
%TO.N,GND*%
X126000000Y-94750000D03*
X130000000Y-99500000D03*
X128799265Y-89500000D03*
X124500000Y-92250000D03*
X124750000Y-79250000D03*
X134450000Y-90000000D03*
X132250000Y-76250000D03*
%TO.N,+5V*%
X131500000Y-91750000D03*
X129250000Y-90500000D03*
%TD*%
D12*
%TO.N,+5V*%
X130250000Y-90500000D02*
X131500000Y-91750000D01*
X129250000Y-90500000D02*
X130250000Y-90500000D01*
%TD*%
%TA.AperFunction,Conductor*%
%TO.N,GND*%
G36*
X132943039Y-75270185D02*
G01*
X132988794Y-75322989D01*
X133000000Y-75374500D01*
X133000000Y-75670000D01*
X133876000Y-75670000D01*
X133919461Y-75682761D01*
X133858386Y-75708060D01*
X133788060Y-75778386D01*
X133750000Y-75870272D01*
X133750000Y-75969728D01*
X133788060Y-76061614D01*
X133858386Y-76131940D01*
X133950272Y-76170000D01*
X134049728Y-76170000D01*
X134141614Y-76131940D01*
X134211940Y-76061614D01*
X134239406Y-75995303D01*
X134250000Y-76044000D01*
X134250000Y-76920000D01*
X134547828Y-76920000D01*
X134547839Y-76919999D01*
X134612242Y-76913074D01*
X134681002Y-76925478D01*
X134732140Y-76973087D01*
X134749500Y-77036363D01*
X134749500Y-77343131D01*
X134729815Y-77410170D01*
X134677011Y-77455925D01*
X134612246Y-77466421D01*
X134605756Y-77465723D01*
X134547873Y-77459500D01*
X134547865Y-77459500D01*
X133452129Y-77459500D01*
X133452123Y-77459501D01*
X133392516Y-77465908D01*
X133257671Y-77516202D01*
X133257664Y-77516206D01*
X133142455Y-77602452D01*
X133142452Y-77602455D01*
X133056206Y-77717664D01*
X133056202Y-77717671D01*
X133005908Y-77852517D01*
X132999501Y-77912116D01*
X132999500Y-77912135D01*
X132999500Y-79007870D01*
X132999501Y-79007876D01*
X133005908Y-79067483D01*
X133056202Y-79202328D01*
X133056206Y-79202335D01*
X133142452Y-79317544D01*
X133142455Y-79317547D01*
X133257664Y-79403793D01*
X133257671Y-79403797D01*
X133392517Y-79454091D01*
X133392516Y-79454091D01*
X133399444Y-79454835D01*
X133452127Y-79460500D01*
X134547872Y-79460499D01*
X134601407Y-79454744D01*
X134612247Y-79453579D01*
X134681006Y-79465986D01*
X134732143Y-79513597D01*
X134749500Y-79576869D01*
X134749500Y-79883131D01*
X134729815Y-79950170D01*
X134677011Y-79995925D01*
X134612246Y-80006421D01*
X134605756Y-80005723D01*
X134547873Y-79999500D01*
X134547865Y-79999500D01*
X133452129Y-79999500D01*
X133452123Y-79999501D01*
X133392516Y-80005908D01*
X133257671Y-80056202D01*
X133257664Y-80056206D01*
X133142455Y-80142452D01*
X133142452Y-80142455D01*
X133056206Y-80257664D01*
X133056202Y-80257671D01*
X133005908Y-80392517D01*
X132999501Y-80452116D01*
X132999500Y-80452135D01*
X132999500Y-81547870D01*
X132999501Y-81547876D01*
X133005908Y-81607483D01*
X133056202Y-81742328D01*
X133056206Y-81742335D01*
X133142452Y-81857544D01*
X133142455Y-81857547D01*
X133257664Y-81943793D01*
X133257671Y-81943797D01*
X133392517Y-81994091D01*
X133392516Y-81994091D01*
X133399444Y-81994835D01*
X133452127Y-82000500D01*
X134547872Y-82000499D01*
X134601407Y-81994744D01*
X134612247Y-81993579D01*
X134681006Y-82005986D01*
X134732143Y-82053597D01*
X134749500Y-82116869D01*
X134749500Y-103125500D01*
X134729815Y-103192539D01*
X134677011Y-103238294D01*
X134625500Y-103249500D01*
X126436106Y-103249500D01*
X126369067Y-103229815D01*
X126323312Y-103177011D01*
X126313368Y-103107853D01*
X126337730Y-103050014D01*
X126362160Y-103018174D01*
X126416948Y-102946774D01*
X126528405Y-102753726D01*
X126613710Y-102547781D01*
X126671404Y-102332463D01*
X126700500Y-102111457D01*
X126700500Y-101888543D01*
X126671404Y-101667537D01*
X126613710Y-101452219D01*
X126528405Y-101246274D01*
X126416948Y-101053226D01*
X126281247Y-100876376D01*
X126281242Y-100876370D01*
X126123629Y-100718757D01*
X126123622Y-100718751D01*
X125946782Y-100583058D01*
X125946780Y-100583057D01*
X125946774Y-100583052D01*
X125753726Y-100471595D01*
X125753722Y-100471593D01*
X125547790Y-100386293D01*
X125547783Y-100386291D01*
X125547781Y-100386290D01*
X125332463Y-100328596D01*
X125249151Y-100317627D01*
X125155757Y-100305332D01*
X125091861Y-100277065D01*
X125053390Y-100218741D01*
X125052559Y-100148876D01*
X125089631Y-100089653D01*
X125128610Y-100066211D01*
X125242328Y-100023797D01*
X125242327Y-100023797D01*
X125242331Y-100023796D01*
X125357546Y-99937546D01*
X125443796Y-99822331D01*
X125494091Y-99687483D01*
X125500500Y-99627873D01*
X125500499Y-98532128D01*
X125494091Y-98472517D01*
X125443796Y-98337669D01*
X125443795Y-98337668D01*
X125443793Y-98337664D01*
X125357547Y-98222455D01*
X125357544Y-98222452D01*
X125242335Y-98136206D01*
X125242328Y-98136202D01*
X125107482Y-98085908D01*
X125107483Y-98085908D01*
X125047883Y-98079501D01*
X125047881Y-98079500D01*
X125047873Y-98079500D01*
X125047864Y-98079500D01*
X123952129Y-98079500D01*
X123952120Y-98079501D01*
X123887752Y-98086420D01*
X123818992Y-98074012D01*
X123767856Y-98026400D01*
X123750500Y-97963130D01*
X123750500Y-97656363D01*
X123770185Y-97589324D01*
X123822989Y-97543569D01*
X123887758Y-97533074D01*
X123952160Y-97539999D01*
X123952172Y-97540000D01*
X124250000Y-97540000D01*
X124750000Y-97540000D01*
X125047828Y-97540000D01*
X125047844Y-97539999D01*
X125107372Y-97533598D01*
X125107379Y-97533596D01*
X125242086Y-97483354D01*
X125242093Y-97483350D01*
X125357187Y-97397190D01*
X125357190Y-97397187D01*
X125443350Y-97282093D01*
X125443354Y-97282086D01*
X125493596Y-97147379D01*
X125493598Y-97147372D01*
X125499999Y-97087844D01*
X125500000Y-97087827D01*
X125500000Y-96790000D01*
X124750000Y-96790000D01*
X124750000Y-97540000D01*
X124250000Y-97540000D01*
X124250000Y-96589728D01*
X124288060Y-96681614D01*
X124358386Y-96751940D01*
X124450272Y-96790000D01*
X124549728Y-96790000D01*
X124641614Y-96751940D01*
X124711940Y-96681614D01*
X124750000Y-96589728D01*
X124750000Y-96490272D01*
X124711940Y-96398386D01*
X124641614Y-96328060D01*
X124549728Y-96290000D01*
X124750000Y-96290000D01*
X125500000Y-96290000D01*
X125500000Y-95992172D01*
X125499999Y-95992155D01*
X125493598Y-95932627D01*
X125493596Y-95932620D01*
X125443354Y-95797913D01*
X125443350Y-95797906D01*
X125357190Y-95682812D01*
X125357187Y-95682809D01*
X125242093Y-95596649D01*
X125242086Y-95596645D01*
X125107379Y-95546403D01*
X125107372Y-95546401D01*
X125047844Y-95540000D01*
X124750000Y-95540000D01*
X124750000Y-96290000D01*
X124549728Y-96290000D01*
X124450272Y-96290000D01*
X124358386Y-96328060D01*
X124288060Y-96398386D01*
X124250000Y-96490272D01*
X124250000Y-95540000D01*
X123952155Y-95540000D01*
X123887756Y-95546925D01*
X123818996Y-95534520D01*
X123767859Y-95486910D01*
X123750500Y-95423636D01*
X123750500Y-95116868D01*
X123770185Y-95049829D01*
X123822989Y-95004074D01*
X123887756Y-94993579D01*
X123892516Y-94994090D01*
X123892517Y-94994091D01*
X123952127Y-95000500D01*
X125047872Y-95000499D01*
X125107483Y-94994091D01*
X125242331Y-94943796D01*
X125357546Y-94857546D01*
X125443796Y-94742331D01*
X125494091Y-94607483D01*
X125500500Y-94547873D01*
X125500499Y-93452128D01*
X125494091Y-93392517D01*
X125443796Y-93257669D01*
X125443795Y-93257668D01*
X125443793Y-93257664D01*
X125357547Y-93142455D01*
X125357544Y-93142452D01*
X125242335Y-93056206D01*
X125242328Y-93056202D01*
X125107482Y-93005908D01*
X125107483Y-93005908D01*
X125047883Y-92999501D01*
X125047881Y-92999500D01*
X125047873Y-92999500D01*
X125047864Y-92999500D01*
X123952129Y-92999500D01*
X123952120Y-92999501D01*
X123887752Y-93006420D01*
X123818992Y-92994012D01*
X123767856Y-92946400D01*
X123750500Y-92883130D01*
X123750500Y-90421153D01*
X128449500Y-90421153D01*
X128449500Y-90578846D01*
X128480261Y-90733489D01*
X128480264Y-90733501D01*
X128540602Y-90879172D01*
X128540609Y-90879185D01*
X128628210Y-91010288D01*
X128628213Y-91010292D01*
X128739707Y-91121786D01*
X128739711Y-91121789D01*
X128870814Y-91209390D01*
X128870827Y-91209397D01*
X128944013Y-91239711D01*
X129016503Y-91269737D01*
X129171153Y-91300499D01*
X129171156Y-91300500D01*
X129171158Y-91300500D01*
X129328844Y-91300500D01*
X129328845Y-91300499D01*
X129483497Y-91269737D01*
X129562969Y-91236819D01*
X129627864Y-91209939D01*
X129636040Y-91208312D01*
X129640381Y-91205523D01*
X129675316Y-91200500D01*
X129908481Y-91200500D01*
X129975520Y-91220185D01*
X129996162Y-91236819D01*
X130703928Y-91944585D01*
X130730808Y-91984814D01*
X130790602Y-92129172D01*
X130790609Y-92129185D01*
X130878210Y-92260288D01*
X130878213Y-92260292D01*
X130989707Y-92371786D01*
X130989711Y-92371789D01*
X131120814Y-92459390D01*
X131120827Y-92459397D01*
X131266498Y-92519735D01*
X131266503Y-92519737D01*
X131421153Y-92550499D01*
X131421156Y-92550500D01*
X131421158Y-92550500D01*
X131578844Y-92550500D01*
X131578845Y-92550499D01*
X131733497Y-92519737D01*
X131879179Y-92459394D01*
X132010289Y-92371789D01*
X132121789Y-92260289D01*
X132209394Y-92129179D01*
X132269737Y-91983497D01*
X132300500Y-91828842D01*
X132300500Y-91671158D01*
X132300500Y-91671155D01*
X132300499Y-91671153D01*
X132269738Y-91516510D01*
X132269737Y-91516503D01*
X132269735Y-91516498D01*
X132209397Y-91370827D01*
X132209390Y-91370814D01*
X132121789Y-91239711D01*
X132121786Y-91239707D01*
X132010292Y-91128213D01*
X132010288Y-91128210D01*
X131879185Y-91040609D01*
X131879172Y-91040602D01*
X131734814Y-90980808D01*
X131694585Y-90953928D01*
X130696546Y-89955888D01*
X130696545Y-89955887D01*
X130581807Y-89879222D01*
X130454332Y-89826421D01*
X130454322Y-89826418D01*
X130318996Y-89799500D01*
X130318994Y-89799500D01*
X130318993Y-89799500D01*
X129675316Y-89799500D01*
X129627864Y-89790061D01*
X129483501Y-89730264D01*
X129483489Y-89730261D01*
X129328845Y-89699500D01*
X129328842Y-89699500D01*
X129171158Y-89699500D01*
X129171155Y-89699500D01*
X129016510Y-89730261D01*
X129016498Y-89730264D01*
X128870827Y-89790602D01*
X128870814Y-89790609D01*
X128739711Y-89878210D01*
X128739707Y-89878213D01*
X128628213Y-89989707D01*
X128628210Y-89989711D01*
X128540609Y-90120814D01*
X128540602Y-90120827D01*
X128480264Y-90266498D01*
X128480261Y-90266510D01*
X128449500Y-90421153D01*
X123750500Y-90421153D01*
X123750500Y-89946868D01*
X123770185Y-89879829D01*
X123822989Y-89834074D01*
X123887756Y-89823579D01*
X123892516Y-89824090D01*
X123892517Y-89824091D01*
X123952127Y-89830500D01*
X125047872Y-89830499D01*
X125107483Y-89824091D01*
X125242331Y-89773796D01*
X125357546Y-89687546D01*
X125443796Y-89572331D01*
X125494091Y-89437483D01*
X125500500Y-89377873D01*
X125500499Y-88282128D01*
X125494091Y-88222517D01*
X125443796Y-88087669D01*
X125443795Y-88087668D01*
X125443793Y-88087664D01*
X125357547Y-87972455D01*
X125357544Y-87972452D01*
X125242335Y-87886206D01*
X125242328Y-87886202D01*
X125107482Y-87835908D01*
X125107483Y-87835908D01*
X125047883Y-87829501D01*
X125047881Y-87829500D01*
X125047873Y-87829500D01*
X125047864Y-87829500D01*
X123952129Y-87829500D01*
X123952120Y-87829501D01*
X123887752Y-87836420D01*
X123818992Y-87824012D01*
X123767856Y-87776400D01*
X123750500Y-87713130D01*
X123750500Y-87406363D01*
X123770185Y-87339324D01*
X123822989Y-87293569D01*
X123887758Y-87283074D01*
X123952160Y-87289999D01*
X123952172Y-87290000D01*
X124250000Y-87290000D01*
X124750000Y-87290000D01*
X125047828Y-87290000D01*
X125047844Y-87289999D01*
X125107372Y-87283598D01*
X125107379Y-87283596D01*
X125242086Y-87233354D01*
X125242093Y-87233350D01*
X125357187Y-87147190D01*
X125357190Y-87147187D01*
X125443350Y-87032093D01*
X125443354Y-87032086D01*
X125493596Y-86897379D01*
X125493598Y-86897372D01*
X125499999Y-86837844D01*
X125500000Y-86837827D01*
X125500000Y-86540000D01*
X124750000Y-86540000D01*
X124750000Y-87290000D01*
X124250000Y-87290000D01*
X124250000Y-86339728D01*
X124288060Y-86431614D01*
X124358386Y-86501940D01*
X124450272Y-86540000D01*
X124549728Y-86540000D01*
X124641614Y-86501940D01*
X124711940Y-86431614D01*
X124750000Y-86339728D01*
X124750000Y-86240272D01*
X124711940Y-86148386D01*
X124641614Y-86078060D01*
X124549728Y-86040000D01*
X124750000Y-86040000D01*
X125500000Y-86040000D01*
X125500000Y-85742172D01*
X125499999Y-85742155D01*
X125493598Y-85682627D01*
X125493596Y-85682620D01*
X125443354Y-85547913D01*
X125443350Y-85547906D01*
X125357190Y-85432812D01*
X125357187Y-85432809D01*
X125242093Y-85346649D01*
X125242086Y-85346645D01*
X125107379Y-85296403D01*
X125107372Y-85296401D01*
X125047844Y-85290000D01*
X124750000Y-85290000D01*
X124750000Y-86040000D01*
X124549728Y-86040000D01*
X124450272Y-86040000D01*
X124358386Y-86078060D01*
X124288060Y-86148386D01*
X124250000Y-86240272D01*
X124250000Y-85290000D01*
X123952155Y-85290000D01*
X123887756Y-85296925D01*
X123818996Y-85284520D01*
X123767859Y-85236910D01*
X123750500Y-85173636D01*
X123750500Y-84866868D01*
X123770185Y-84799829D01*
X123822989Y-84754074D01*
X123887756Y-84743579D01*
X123892516Y-84744090D01*
X123892517Y-84744091D01*
X123952127Y-84750500D01*
X125047872Y-84750499D01*
X125107483Y-84744091D01*
X125242331Y-84693796D01*
X125357546Y-84607546D01*
X125443796Y-84492331D01*
X125494091Y-84357483D01*
X125500500Y-84297873D01*
X125500499Y-83202128D01*
X125494091Y-83142517D01*
X125443796Y-83007669D01*
X125443795Y-83007668D01*
X125443793Y-83007664D01*
X125357547Y-82892455D01*
X125357544Y-82892452D01*
X125242335Y-82806206D01*
X125242328Y-82806202D01*
X125107482Y-82755908D01*
X125107483Y-82755908D01*
X125047883Y-82749501D01*
X125047881Y-82749500D01*
X125047873Y-82749500D01*
X125047864Y-82749500D01*
X123952129Y-82749500D01*
X123952120Y-82749501D01*
X123887752Y-82756420D01*
X123818992Y-82744012D01*
X123767856Y-82696400D01*
X123750500Y-82633130D01*
X123750500Y-77936106D01*
X123770185Y-77869067D01*
X123822989Y-77823312D01*
X123892147Y-77813368D01*
X123949986Y-77837730D01*
X123969257Y-77852517D01*
X124053226Y-77916948D01*
X124246274Y-78028405D01*
X124452219Y-78113710D01*
X124667537Y-78171404D01*
X124888543Y-78200500D01*
X124888550Y-78200500D01*
X125111450Y-78200500D01*
X125111457Y-78200500D01*
X125332463Y-78171404D01*
X125547781Y-78113710D01*
X125753726Y-78028405D01*
X125946774Y-77916948D01*
X126123624Y-77781247D01*
X126281247Y-77623624D01*
X126416948Y-77446774D01*
X126528405Y-77253726D01*
X126613710Y-77047781D01*
X126671404Y-76832463D01*
X126700500Y-76611457D01*
X126700500Y-76467844D01*
X133000000Y-76467844D01*
X133006401Y-76527372D01*
X133006403Y-76527379D01*
X133056645Y-76662086D01*
X133056649Y-76662093D01*
X133142809Y-76777187D01*
X133142812Y-76777190D01*
X133257906Y-76863350D01*
X133257913Y-76863354D01*
X133392620Y-76913596D01*
X133392627Y-76913598D01*
X133452155Y-76919999D01*
X133452172Y-76920000D01*
X133750000Y-76920000D01*
X133750000Y-76170000D01*
X133000000Y-76170000D01*
X133000000Y-76467844D01*
X126700500Y-76467844D01*
X126700500Y-76388543D01*
X126671404Y-76167537D01*
X126613710Y-75952219D01*
X126600364Y-75920000D01*
X126528406Y-75746277D01*
X126528405Y-75746274D01*
X126416948Y-75553226D01*
X126337730Y-75449986D01*
X126312536Y-75384817D01*
X126326575Y-75316372D01*
X126375389Y-75266382D01*
X126436106Y-75250500D01*
X132876000Y-75250500D01*
X132943039Y-75270185D01*
G37*
%TD.AperFunction*%
%TD*%
M02*
